<?xml version="1.0" encoding="UTF-8"?>
<svg width="66.517" height="62.744" version="1.1" viewBox="0 0 66.517 62.744" xmlns="http://www.w3.org/2000/svg">
 <path d="m0 75.077v-75.077h78.85v75.077z" fill="#9af" stroke-width=".35378" style="mix-blend-mode:normal"/>
 <g transform="rotate(-15.461 175.79 1608.2)" fill="#738bff" stroke-width=".5">
  <path transform="translate(11.742 8.7346)" d="m456.82 32.355c-2.3628-3.946-1.0794-9.0603 2.8666-11.423 3.3854-2.0271 7.6306-1.3705 10.261 1.3487-1.5408-1.1343-3.6736-1.3023-5.4179-0.25783-2.3188 1.3885-3.073 4.3939-1.6845 6.7128s4.3939 3.073 6.7128 1.6845c1.7526-1.0495 2.6114-3.0226 2.3268-4.9249 1.1815 3.6134-0.24189 7.6909-3.6412 9.7264-3.946 2.3628-9.0603 1.0794-11.423-2.8666z" style="mix-blend-mode:normal"/>
  <path transform="translate(11.742 8.7346)" d="m422.94 61.081c-2.3628-3.946-1.0794-9.0603 2.8666-11.423 3.3854-2.0271 7.6306-1.3705 10.261 1.3487-1.5408-1.1343-3.6736-1.3023-5.4179-0.25782-2.3188 1.3885-3.073 4.3939-1.6845 6.7128 1.3885 2.3188 4.3939 3.073 6.7128 1.6845 1.7526-1.0495 2.6114-3.0226 2.3268-4.9249 1.1815 3.6134-0.24189 7.6909-3.6412 9.7264-3.946 2.3628-9.0603 1.0794-11.423-2.8666z" style="mix-blend-mode:normal"/>
  <path transform="translate(11.742 8.7346)" d="m464.01 62.357s-0.88383-4.6884-2.1677-5.917c-1.2828-1.2276-5.5322-1.4517-5.5322-1.4517s4.664-0.9793 5.9373-2.3098c1.175-1.2278 1.4314-5.39 1.4314-5.39s0.53283 4.0122 1.8117 5.2361c1.2877 1.2323 5.8882 2.1326 5.8882 2.1326s-4.4573 0.36803-5.6225 1.5856c-1.2802 1.3377-1.7462 6.1143-1.7462 6.1143z" style="mix-blend-mode:normal"/>
  <path transform="translate(11.742 8.7346)" d="m430.26 33.125s-0.88383-4.6884-2.1677-5.917c-1.2828-1.2276-5.5322-1.4517-5.5322-1.4517s4.664-0.9793 5.9373-2.3098c1.175-1.2278 1.4314-5.39 1.4314-5.39s0.53283 4.0122 1.8117 5.2361c1.2877 1.2323 5.8882 2.1326 5.8882 2.1326s-4.4573 0.36803-5.6225 1.5856c-1.2802 1.3377-1.7462 6.1143-1.7462 6.1143z" style="mix-blend-mode:normal"/>
 </g>
</svg>
