<?xml version="1.0" encoding="UTF-8" standalone="no"?>
<svg
   version="1.1"
   width="66.51683"
   height="62.744164"
   viewBox="0 0 66.51683 62.744162"
   id="svg1198"
   sodipodi:docname="star_and_moon.svg"
   inkscape:version="1.1 (c4e8f9e, 2021-05-24)"
   xmlns:inkscape="http://www.inkscape.org/namespaces/inkscape"
   xmlns:sodipodi="http://sodipodi.sourceforge.net/DTD/sodipodi-0.dtd"
   xmlns="http://www.w3.org/2000/svg"
   xmlns:svg="http://www.w3.org/2000/svg">
  <defs
     id="defs1202" />
  <sodipodi:namedview
     id="namedview1200"
     pagecolor="#ffffff"
     bordercolor="#666666"
     borderopacity="1.0"
     inkscape:pageshadow="2"
     inkscape:pageopacity="0.0"
     inkscape:pagecheckerboard="0"
     showgrid="false"
     inkscape:zoom="2.189243"
     inkscape:cx="197.78526"
     inkscape:cy="195.72976"
     inkscape:window-width="2389"
     inkscape:window-height="1371"
     inkscape:window-x="0"
     inkscape:window-y="25"
     inkscape:window-maximized="0"
     inkscape:current-layer="svg1198" />
  <path
     d="M 0,75.077192 V 0 h 78.849857 v 75.077192 z"
     stroke-width="0.353783"
     id="path824"
     style="mix-blend-mode:normal;fill:#99aaff;fill-opacity:1;stroke:none;stroke-opacity:1" />
  <g
     id="g2033"
     transform="rotate(-15.461325,175.7939,1608.1571)"
     style="fill:#738bff;fill-opacity:1;stroke:none">
    <path
       d="m 456.82055,32.35466 c -2.36283,-3.946 -1.07942,-9.06032 2.86658,-11.42315 3.38535,-2.02712 7.63063,-1.37051 10.26064,1.34872 -1.54082,-1.13434 -3.67359,-1.3023 -5.41789,-0.25783 -2.31885,1.38851 -3.07305,4.39393 -1.68454,6.71278 1.38851,2.31885 4.39392,3.07305 6.71278,1.68454 1.75264,-1.04947 2.61144,-3.02261 2.32682,-4.92486 1.18148,3.6134 -0.24189,7.69088 -3.64124,9.72639 -3.946,2.36283 -9.06032,1.07942 -11.42315,-2.86658 z"
       stroke-width="0.5"
       id="path1184"
       style="mix-blend-mode:normal;fill:#738bff;stroke:none;fill-opacity:1"
       transform="translate(11.7415,8.73458)" />
    <path
       d="m 422.94258,61.08112 c -2.36283,-3.946 -1.07942,-9.06032 2.86658,-11.42315 3.38535,-2.02712 7.63063,-1.37051 10.26064,1.34872 -1.54082,-1.13434 -3.67359,-1.30229 -5.41789,-0.25782 -2.31885,1.38851 -3.07305,4.39392 -1.68454,6.71278 1.38851,2.31885 4.39392,3.07305 6.71278,1.68454 1.75264,-1.04947 2.61144,-3.02261 2.32682,-4.92486 1.18148,3.6134 -0.24189,7.69088 -3.64124,9.72638 -3.946,2.36283 -9.06032,1.07942 -11.42315,-2.86658 z"
       stroke-width="0.5"
       id="path1188"
       style="mix-blend-mode:normal;fill:#738bff;stroke:none;fill-opacity:1"
       transform="translate(11.7415,8.73458)" />
    <path
       d="m 464.01174,62.35747 c 0,0 -0.88383,-4.68837 -2.16772,-5.91703 -1.28275,-1.22757 -5.53217,-1.45166 -5.53217,-1.45166 0,0 4.66397,-0.9793 5.93729,-2.30985 1.17501,-1.22782 1.43141,-5.39003 1.43141,-5.39003 0,0 0.53283,4.01218 1.81173,5.23607 1.28767,1.23229 5.88815,2.13262 5.88815,2.13262 0,0 -4.45728,0.36803 -5.6225,1.58561 -1.28018,1.33772 -1.7462,6.11427 -1.7462,6.11427 z"
       stroke-width="0.5"
       id="path1190"
       style="mix-blend-mode:normal;fill:#738bff;stroke:none;fill-opacity:1"
       transform="translate(11.7415,8.73458)" />
    <path
       d="m 430.26157,33.12504 c 0,0 -0.88383,-4.68837 -2.16772,-5.91703 -1.28275,-1.22757 -5.53217,-1.45166 -5.53217,-1.45166 0,0 4.66397,-0.9793 5.93729,-2.30985 1.17501,-1.22782 1.43141,-5.39003 1.43141,-5.39003 0,0 0.53283,4.01218 1.81173,5.23607 1.28767,1.23229 5.88815,2.13262 5.88815,2.13262 0,0 -4.45728,0.36803 -5.6225,1.58561 -1.28018,1.33772 -1.7462,6.11427 -1.7462,6.11427 z"
       stroke-width="0.5"
       id="path1192"
       style="mix-blend-mode:normal;fill:#738bff;stroke:none;fill-opacity:1"
       transform="translate(11.7415,8.73458)" />
  </g>
</svg>
