<svg version="1.1" xmlns="http://www.w3.org/2000/svg" xmlns:xlink="http://www.w3.org/1999/xlink" width="84.06193" height="87.68266" viewBox="0,0,84.06193,87.68266"><g transform="translate(-198.6972,-136.50075)"><g data-paper-data="{&quot;isPaintingLayer&quot;:true}" fill-rule="nonzero" stroke-width="1.5" stroke-linecap="butt" stroke-linejoin="miter" stroke-miterlimit="10" stroke-dasharray="" stroke-dashoffset="0" style="mix-blend-mode: normal"><path d="M264.88856,201.92568l15.78202,-12.95979l-8.37447,17.8478z" fill="#87d0ff" stroke="#87d0ff"/><path d="M260.69032,216.315l3.91833,-14.04305l7.41811,4.8739z" fill="#87bfff" stroke="#87bfff"/><path d="M260.15861,216.45481l-10.47976,-13.77731l14.49912,-0.52576z" fill="#87aeff" stroke="#87aeff"/><path d="M241.9477,221.79503l7.37927,-18.86488l10.54842,13.89889z" fill="#87a2ff" stroke="#87a2ff"/><path d="M241.64383,221.25425l-3.61097,-26.03892l10.99537,7.35046z" fill="#888cff" stroke="#888cff"/><path d="M237.5922,195.2639l3.66878,26.56486l-20.57011,-4.7045z" fill="#8286f5" stroke="#8286f5"/><path d="M220.23864,216.92083l-17.82782,-18.68177l34.82735,-3.2647z" fill="#787ce3" stroke="#787ce3"/><path d="M202.07366,197.79178l-2.23981,-29.2258l37.19571,25.93387z" fill="#8286f5" stroke="#8286f5"/><path d="M237.71897,194.71736l-38.14746,-26.62237l34.52717,2.82667z" fill="#888cff" stroke="none"/><path d="M233.5817,170.65861l-33.59635,-2.76168l11.61287,-18.59298z" fill="#888cff" stroke="#888cff"/><path d="M234.06887,170.5441l-21.75043,-21.14143l32.22286,7.85688z" fill="#87a2ff" stroke="#87a2ff"/><path d="M244.66479,157.05797l-32.43963,-8.14391l25.2613,-10.68672z" fill="#87aeff" stroke="#87aeff"/><path d="M244.64898,157.41371l-6.4555,-18.63511l18.76284,15.477z" fill="#87bfff" stroke="#87bfff"/><path d="M256.89403,154.42556l-18.38884,-15.97709l26.48157,8.12014z" fill="#87d0ff" stroke="#87d0ff"/><path d="M279.62764,167.26844l-22.51716,-12.91672l8.30597,-7.54535z" fill="#87bfff" stroke="#87bfff"/></g></g></svg>