<svg version="1.1" xmlns="http://www.w3.org/2000/svg" xmlns:xlink="http://www.w3.org/1999/xlink" width="52.0449" height="41.44983" viewBox="0,0,52.0449,41.44983"><g transform="translate(-165.15213,-158.158)"><g data-paper-data="{&quot;isPaintingLayer&quot;:true}" fill-rule="nonzero" stroke-width="3" stroke-linecap="butt" stroke-linejoin="miter" stroke-miterlimit="10" stroke-dasharray="" stroke-dashoffset="0" style="mix-blend-mode: normal"><path d="M215.69703,188.92054c0,5.07399 -10.97908,9.18729 -24.52245,9.18729c-13.54337,0 -24.52245,-4.11329 -24.52245,-9.18729c0,-5.07399 10.97907,-9.18728 24.52245,-9.18728c13.54337,0 24.52245,4.11329 24.52245,9.18728z" fill="#9166ff" stroke="#9166ff"/><path d="M180.66381,187.96157c-3.27814,-1.21412 4.41924,-15.91728 5.959,-19.73082c1.05605,-2.61553 -7.08809,2.85711 -8.4812,1.17261c-1.51408,-1.83078 6.36892,-9.63154 10.28422,-9.74536c4.92944,-0.14331 9.31444,4.82872 10.29974,7.73117c2.62276,7.72599 4.84811,17.56159 3.9882,19.88335c-1.42838,3.85664 -18.77181,1.90318 -22.04996,0.68905z" fill="#2800a2" stroke="#2800a2"/><path d="M171.59622,169.46321c1.83553,-0.96687 4.11015,-0.21401 5.05522,1.63285c0.94506,1.84686 0.18404,4.05375 -1.63285,5.05522c-1.74491,0.96179 -3.24522,-0.13103 -3.27173,-0.14388c-0.02651,-0.01285 0.98988,0.1947 1.49486,-0.06371c1.24497,-0.63707 1.73777,-2.16276 1.10071,-3.40773c-0.63707,-1.24497 -2.16276,-1.73777 -3.40773,-1.10071c-0.75447,0.38607 -0.84191,1.77693 -0.79007,1.69352c0.03847,-0.0619 -0.83856,-2.45921 1.45159,-3.66556z" fill="#dab438" stroke="#ffd328"/><path d="M194.01809,181.87162c0,0.83244 0.94699,3.38986 0.29079,4.10373c-0.77109,0.83887 -2.81987,-1.42044 -4.0568,-1.42044c-1.0436,0 -3.212,2.68778 -3.89408,2.01063c-0.67731,-0.67243 0.12806,-3.67056 0.12806,-4.69392c0,-0.90914 -4.00056,-2.11869 -3.45192,-2.76477c0.38067,-0.44828 2.24702,-0.2333 3.95556,-0.5417c1.39208,-0.25127 2.7419,-4.55509 3.26238,-4.55509c0.40293,0 1.41708,4.20511 2.57184,4.3208c1.98012,0.19839 4.46789,0.08247 4.90248,0.54699c0.62023,0.66295 -3.70831,2.02003 -3.70831,2.99377z" fill="#dab438" stroke="#ffd328"/></g></g></svg>