<svg version="1.1" xmlns="http://www.w3.org/2000/svg" xmlns:xlink="http://www.w3.org/1999/xlink" width="142.05335" height="43.82601" viewBox="0,0,142.05335,43.82601"><g transform="translate(-165.15213,-158.15801)"><g data-paper-data="{&quot;isPaintingLayer&quot;:true}" fill-rule="nonzero" stroke-linejoin="miter" stroke-miterlimit="10" stroke-dasharray="" stroke-dashoffset="0" style="mix-blend-mode: normal"><path d="M215.69703,188.92056c0,5.07399 -10.97908,9.18729 -24.52245,9.18729c-13.54337,0 -24.52245,-4.11329 -24.52245,-9.18729c0,-5.07399 10.97907,-9.18728 24.52245,-9.18728c13.54337,0 24.52245,4.11329 24.52245,9.18728z" fill="#9166ff" stroke="#9166ff" stroke-width="3" stroke-linecap="butt"/><path d="M180.66381,187.96159c-3.27814,-1.21412 4.41924,-15.91728 5.959,-19.73082c1.05605,-2.61553 -7.08809,2.85711 -8.4812,1.17261c-1.51408,-1.83078 6.36892,-9.63154 10.28422,-9.74536c4.92944,-0.14331 9.31444,4.82872 10.29974,7.73117c2.62276,7.72599 4.84811,17.56159 3.9882,19.88335c-1.42838,3.85664 -18.77181,1.90318 -22.04996,0.68905z" fill="#2800a2" stroke="#2800a2" stroke-width="3" stroke-linecap="butt"/><path d="M171.59622,169.46323c1.83553,-0.96687 4.11015,-0.21401 5.05522,1.63285c0.94506,1.84686 0.18404,4.05375 -1.63285,5.05522c-1.74491,0.96179 -3.24522,-0.13103 -3.27173,-0.14388c-0.02651,-0.01285 0.98988,0.1947 1.49486,-0.06371c1.24497,-0.63707 1.73777,-2.16276 1.10071,-3.40773c-0.63707,-1.24497 -2.16276,-1.73777 -3.40773,-1.10071c-0.75447,0.38607 -0.84191,1.77693 -0.79007,1.69352c0.03847,-0.0619 -0.83856,-2.45921 1.45159,-3.66556z" fill="#dab438" stroke="#ffd328" stroke-width="3" stroke-linecap="butt"/><text transform="translate(245.78587,192.91195) scale(0.71915,0.71915)" font-size="40" xml:space="preserve" fill="#2800a2" fill-rule="nonzero" stroke="none" stroke-width="1" stroke-linecap="butt" stroke-linejoin="miter" stroke-miterlimit="10" stroke-dasharray="" stroke-dashoffset="0" font-family="Sans Serif" font-weight="normal" text-anchor="start" style="mix-blend-mode: normal"><tspan x="0" dy="0">nap!</tspan></text><path d="M245.37678,191.46361c0,1.95118 -1.98335,3.318 -3.90896,3.318c-0.56862,0 -2.45863,0 -3.41912,0c-1.13532,0 -0.61956,3.01316 -4.83588,3.05323c-4.74693,0.04511 -3.09077,-3.1655 -4.59163,-3.1655c-5.76177,0 0.60923,0.11228 -3.55564,0.11228c-2.53088,0 -4.16318,-1.62823 -4.16318,-3.04549c0,-2.04782 0,-9.35955 0,-13.45598c0,-2.45759 2.17981,-4.2854 5.2074,-4.2854c4.33926,0 -1.06012,0 2.84055,0c1.53922,0 -0.66018,3.26978 4.62439,3.27012c4.25239,0.00027 2.98476,-3.27012 4.258,-3.27012c0.59397,0 2.60559,0 3.10646,0c3.51467,0 4.43761,1.89268 4.43761,3.46787c0,2.2536 0,10.05504 0,14.001z" data-paper-data="{&quot;index&quot;:null}" fill="#210082" stroke="#9166ff" stroke-width="2" stroke-linecap="butt"/><path d="M235.31697,181.82883c0,0 -0.41803,-1.52763 -2.42645,-1.33019c-1.56683,0.15403 -2.55459,1.80801 -2.49467,2.74483c0.05992,0.93682 0.54878,2.48414 2.24435,2.43408c1.29706,-0.0383 3.47738,0.68511 3.53662,2.71592c0.02538,0.87024 -0.14702,1.53433 -0.81635,2.17672c-0.41311,0.39648 -1.26025,0.9867 -2.12228,1.00797c-2.43938,0.06017 -3.29731,-2.54038 -3.29731,-2.54038" data-paper-data="{&quot;index&quot;:null}" fill="none" stroke="#9166ff" stroke-width="3" stroke-linecap="round"/><path d="M195.35142,181.20495c0,0.83244 0.94699,3.38986 0.29079,4.10373c-0.77109,0.83887 -2.81987,-1.42044 -4.0568,-1.42044c-1.0436,0 -3.212,2.68778 -3.89408,2.01063c-0.67731,-0.67243 0.12806,-3.67056 0.12806,-4.69392c0,-0.90914 -4.00056,-2.11869 -3.45192,-2.76477c0.38067,-0.44828 2.24702,-0.2333 3.95556,-0.5417c1.39208,-0.25127 2.7419,-4.55509 3.26238,-4.55509c0.40293,0 1.41708,4.20511 2.57184,4.3208c1.98012,0.19839 4.46789,0.08247 4.90248,0.54699c0.62023,0.66295 -3.70831,2.02003 -3.70831,2.99377z" fill="#dab438" stroke="#ffd328" stroke-width="3" stroke-linecap="butt"/></g></g></svg>