<svg version="1.1" xmlns="http://www.w3.org/2000/svg" xmlns:xlink="http://www.w3.org/1999/xlink" width="502" height="380.37838" viewBox="0,0,502,380.37838"><g transform="translate(11.74148,8.73458)"><g data-paper-data="{&quot;isPaintingLayer&quot;:true}" fill-rule="nonzero" stroke-linecap="butt" stroke-linejoin="miter" stroke-miterlimit="10" stroke-dasharray="" stroke-dashoffset="0" style="mix-blend-mode: normal"><path d="M-10.74148,370.6438v-378.37838h500v378.37838z" fill="#c2b4ff" stroke="#000000" stroke-width="2"/><g fill="#8b71ff" stroke="#8b71ff" stroke-width="0.5"><path d="M12.9516,340.17553c-2.36283,-3.946 -1.07942,-9.06032 2.86658,-11.42315c3.38535,-2.02712 7.63063,-1.37051 10.26064,1.34872c-1.54082,-1.13434 -3.67359,-1.3023 -5.41789,-0.25783c-2.31885,1.38851 -3.07305,4.39393 -1.68454,6.71278c1.38851,2.31885 4.39392,3.07305 6.71278,1.68454c1.75264,-1.04947 2.61144,-3.02261 2.32682,-4.92486c1.18148,3.6134 -0.24189,7.69088 -3.64124,9.72639c-3.946,2.36283 -9.06032,1.07942 -11.42315,-2.86658z"/><path d="M80.66177,339.63015c-2.36283,-3.946 -1.07942,-9.06032 2.86658,-11.42315c3.38535,-2.02712 7.63063,-1.37051 10.26064,1.34872c-1.54082,-1.13434 -3.67359,-1.3023 -5.41789,-0.25783c-2.31885,1.38851 -3.07305,4.39392 -1.68454,6.71278c1.38851,2.31885 4.39392,3.07305 6.71278,1.68454c1.75264,-1.04947 2.61144,-3.02261 2.32682,-4.92486c1.18148,3.6134 -0.24189,7.69088 -3.64124,9.72638c-3.946,2.36283 -9.06032,1.07942 -11.42315,-2.86658z"/><path d="M11.20765,288.79116c-2.36283,-3.946 -1.07942,-9.06032 2.86658,-11.42315c3.38535,-2.02712 7.63063,-1.37051 10.26064,1.34872c-1.54082,-1.13434 -3.67359,-1.3023 -5.41789,-0.25783c-2.31885,1.38851 -3.07305,4.39392 -1.68454,6.71278c1.38851,2.31885 4.39392,3.07305 6.71278,1.68454c1.75264,-1.04947 2.61144,-3.02261 2.32682,-4.92486c1.18148,3.6134 -0.24189,7.69088 -3.64124,9.72638c-3.946,2.36283 -9.06032,1.07942 -11.42315,-2.86658z"/><path d="M84.46972,287.59263c-2.36283,-3.946 -1.07942,-9.06032 2.86658,-11.42315c3.38535,-2.02712 7.63063,-1.37051 10.26064,1.34872c-1.54082,-1.13434 -3.67359,-1.3023 -5.41789,-0.25783c-2.31885,1.38851 -3.07305,4.39393 -1.68454,6.71278c1.38851,2.31885 4.39392,3.07305 6.71278,1.68454c1.75264,-1.04947 2.61144,-3.02261 2.32682,-4.92486c1.18148,3.6134 -0.24189,7.69088 -3.64124,9.72639c-3.946,2.36283 -9.06032,1.07942 -11.42315,-2.86658z"/><path d="M51.6139,343.75812c0,0 -0.88383,-4.68837 -2.16772,-5.91703c-1.28275,-1.22757 -5.53217,-1.45166 -5.53217,-1.45166c0,0 4.66397,-0.9793 5.93728,-2.30985c1.17501,-1.22782 1.43141,-5.39003 1.43141,-5.39003c0,0 0.53283,4.01218 1.81172,5.23607c1.28767,1.23229 5.88816,2.13262 5.88816,2.13262c0,0 -4.45728,0.36803 -5.6225,1.58561c-1.28018,1.33772 -1.7462,6.11427 -1.7462,6.11427z"/><path d="M19.39009,316.10645c0,0 -0.88383,-4.68837 -2.16772,-5.91703c-1.28275,-1.22757 -5.53217,-1.45166 -5.53217,-1.45166c0,0 4.66397,-0.9793 5.93729,-2.30985c1.17501,-1.22782 1.43141,-5.39003 1.43141,-5.39003c0,0 0.53283,4.01218 1.81173,5.23607c1.28767,1.23229 5.88815,2.13262 5.88815,2.13262c0,0 -4.45727,0.36803 -5.62249,1.58561c-1.28018,1.33772 -1.7462,6.11427 -1.7462,6.11427z"/><path d="M49.52875,313.39583c-2.36283,-3.946 -1.07942,-9.06032 2.86658,-11.42315c3.38535,-2.02712 7.63063,-1.37051 10.26064,1.34872c-1.54082,-1.13434 -3.67359,-1.30229 -5.41789,-0.25782c-2.31885,1.38851 -3.07305,4.39392 -1.68454,6.71278c1.38851,2.31885 4.39392,3.07305 6.71278,1.68454c1.75264,-1.04947 2.61144,-3.02261 2.32682,-4.92486c1.18148,3.6134 -0.24189,7.69088 -3.64124,9.72638c-3.946,2.36283 -9.06032,1.07942 -11.42315,-2.86658z"/><path d="M54.9875,291.28625c0,0 -0.88383,-4.68837 -2.16772,-5.91703c-1.28275,-1.22757 -5.53217,-1.45166 -5.53217,-1.45166c0,0 4.66397,-0.9793 5.93729,-2.30985c1.17501,-1.22782 1.43141,-5.39003 1.43141,-5.39003c0,0 0.53283,4.01218 1.81173,5.23607c1.28767,1.23229 5.88815,2.13262 5.88815,2.13262c0,0 -4.45728,0.36803 -5.6225,1.58561c-1.28018,1.33772 -1.7462,6.11427 -1.7462,6.11427z"/><path d="M87.97223,316.43303c0,0 -0.88383,-4.68837 -2.16771,-5.91703c-1.28275,-1.22757 -5.53217,-1.45166 -5.53217,-1.45166c0,0 4.66397,-0.9793 5.93729,-2.30985c1.17501,-1.22782 1.43141,-5.39003 1.43141,-5.39003c0,0 0.53283,4.01218 1.81173,5.23608c1.28767,1.23229 5.88816,2.13262 5.88816,2.13262c0,0 -4.45728,0.36803 -5.6225,1.58561c-1.28018,1.33772 -1.7462,6.11427 -1.7462,6.11427z"/></g><g fill="#8b71ff" stroke="#8b71ff" stroke-width="0.5"><path d="M12.68585,173.81641c-2.36283,-3.946 -1.07942,-9.06032 2.86658,-11.42315c3.38535,-2.02712 7.63063,-1.37051 10.26064,1.34872c-1.54082,-1.13434 -3.67359,-1.3023 -5.41789,-0.25783c-2.31885,1.38851 -3.07305,4.39393 -1.68454,6.71278c1.38851,2.31885 4.39392,3.07305 6.71278,1.68454c1.75264,-1.04947 2.61144,-3.02261 2.32682,-4.92486c1.18148,3.6134 -0.24189,7.69088 -3.64124,9.72639c-3.946,2.36283 -9.06032,1.07942 -11.42315,-2.86658z"/><path d="M80.39602,173.27105c-2.36283,-3.946 -1.07942,-9.06032 2.86658,-11.42315c3.38535,-2.02712 7.63063,-1.37051 10.26064,1.34872c-1.54082,-1.13434 -3.67359,-1.3023 -5.41789,-0.25783c-2.31885,1.38851 -3.07305,4.39392 -1.68454,6.71278c1.38851,2.31885 4.39392,3.07305 6.71278,1.68454c1.75264,-1.04947 2.61144,-3.02261 2.32682,-4.92486c1.18148,3.6134 -0.24189,7.69088 -3.64124,9.72638c-3.946,2.36283 -9.06032,1.07942 -11.42315,-2.86658z"/><path d="M10.94191,122.43208c-2.36283,-3.946 -1.07942,-9.06032 2.86658,-11.42315c3.38535,-2.02712 7.63063,-1.37051 10.26064,1.34872c-1.54082,-1.13434 -3.67359,-1.3023 -5.41789,-0.25783c-2.31885,1.38851 -3.07305,4.39392 -1.68454,6.71278c1.38851,2.31885 4.39392,3.07305 6.71278,1.68454c1.75264,-1.04947 2.61144,-3.02261 2.32682,-4.92486c1.18148,3.6134 -0.24189,7.69088 -3.64124,9.72638c-3.946,2.36283 -9.06032,1.07942 -11.42315,-2.86658z"/><path d="M84.20396,121.23351c-2.36283,-3.946 -1.07942,-9.06032 2.86658,-11.42315c3.38535,-2.02712 7.63063,-1.37051 10.26064,1.34872c-1.54082,-1.13434 -3.67359,-1.3023 -5.41789,-0.25783c-2.31885,1.38851 -3.07305,4.39393 -1.68454,6.71278c1.38851,2.31885 4.39392,3.07305 6.71278,1.68454c1.75264,-1.04947 2.61144,-3.02261 2.32682,-4.92486c1.18148,3.6134 -0.24189,7.69088 -3.64124,9.72639c-3.946,2.36283 -9.06032,1.07942 -11.42315,-2.86658z"/><path d="M51.34815,177.39902c0,0 -0.88383,-4.68837 -2.16772,-5.91703c-1.28275,-1.22757 -5.53217,-1.45166 -5.53217,-1.45166c0,0 4.66397,-0.9793 5.93728,-2.30985c1.17501,-1.22782 1.43141,-5.39003 1.43141,-5.39003c0,0 0.53283,4.01218 1.81172,5.23607c1.28767,1.23229 5.88816,2.13262 5.88816,2.13262c0,0 -4.45728,0.36803 -5.6225,1.58561c-1.28018,1.33772 -1.7462,6.11427 -1.7462,6.11427z"/><path d="M19.12434,149.74736c0,0 -0.88383,-4.68837 -2.16772,-5.91703c-1.28275,-1.22757 -5.53217,-1.45166 -5.53217,-1.45166c0,0 4.66397,-0.9793 5.93729,-2.30985c1.17501,-1.22782 1.43141,-5.39003 1.43141,-5.39003c0,0 0.53283,4.01218 1.81173,5.23607c1.28767,1.23229 5.88815,2.13262 5.88815,2.13262c0,0 -4.45727,0.36803 -5.62249,1.58561c-1.28018,1.33772 -1.7462,6.11427 -1.7462,6.11427z"/><path d="M49.263,147.03672c-2.36283,-3.946 -1.07942,-9.06032 2.86658,-11.42315c3.38535,-2.02712 7.63063,-1.37051 10.26064,1.34872c-1.54082,-1.13434 -3.67359,-1.30229 -5.41789,-0.25782c-2.31885,1.38851 -3.07305,4.39392 -1.68454,6.71278c1.38851,2.31885 4.39392,3.07305 6.71278,1.68454c1.75264,-1.04947 2.61144,-3.02261 2.32682,-4.92486c1.18148,3.6134 -0.24189,7.69088 -3.64124,9.72638c-3.946,2.36283 -9.06032,1.07942 -11.42315,-2.86658z"/><path d="M54.72174,124.92715c0,0 -0.88383,-4.68837 -2.16772,-5.91703c-1.28275,-1.22757 -5.53217,-1.45166 -5.53217,-1.45166c0,0 4.66397,-0.9793 5.93729,-2.30985c1.17501,-1.22782 1.43141,-5.39003 1.43141,-5.39003c0,0 0.53283,4.01218 1.81173,5.23607c1.28767,1.23229 5.88815,2.13262 5.88815,2.13262c0,0 -4.45728,0.36803 -5.6225,1.58561c-1.28018,1.33772 -1.7462,6.11427 -1.7462,6.11427z"/><path d="M87.70648,150.07392c0,0 -0.88383,-4.68837 -2.16771,-5.91703c-1.28275,-1.22757 -5.53217,-1.45166 -5.53217,-1.45166c0,0 4.66397,-0.9793 5.93729,-2.30985c1.17501,-1.22782 1.43141,-5.39003 1.43141,-5.39003c0,0 0.53283,4.01218 1.81173,5.23608c1.28767,1.23229 5.88816,2.13262 5.88816,2.13262c0,0 -4.45728,0.36803 -5.6225,1.58561c-1.28018,1.33772 -1.7462,6.11427 -1.7462,6.11427z"/></g><g fill="#8b71ff" stroke="#8b71ff" stroke-width="0.5"><path d="M45.8486,259.90533c-2.36283,-3.946 -1.07942,-9.06032 2.86658,-11.42315c3.38535,-2.02712 7.63063,-1.37051 10.26064,1.34872c-1.54082,-1.13434 -3.67359,-1.3023 -5.41789,-0.25783c-2.31885,1.38851 -3.07305,4.39392 -1.68454,6.71278c1.38851,2.31885 4.39392,3.07305 6.71278,1.68454c1.75264,-1.04947 2.61144,-3.02261 2.32682,-4.92486c1.18148,3.6134 -0.24189,7.69088 -3.64124,9.72638c-3.946,2.36283 -9.06032,1.07942 -11.42315,-2.86658z"/><path d="M44.87307,204.14733c-2.36283,-3.946 -1.07942,-9.06032 2.86658,-11.42315c3.38535,-2.02712 7.63063,-1.37051 10.26064,1.34872c-1.54082,-1.13434 -3.67359,-1.3023 -5.41789,-0.25783c-2.31885,1.38851 -3.07305,4.39393 -1.68454,6.71278c1.38851,2.31885 4.39392,3.07305 6.71278,1.68454c1.75264,-1.04947 2.61144,-3.02261 2.32682,-4.92486c1.18148,3.6134 -0.24189,7.69088 -3.64124,9.72639c-3.946,2.36283 -9.06032,1.07942 -11.42315,-2.86658z"/><path d="M87.75582,263.23605c0,0 -0.88383,-4.68837 -2.16772,-5.91703c-1.28275,-1.22757 -5.53217,-1.45166 -5.53217,-1.45166c0,0 4.66397,-0.9793 5.93728,-2.30985c1.17501,-1.22782 1.43141,-5.39003 1.43141,-5.39003c0,0 0.53283,4.01218 1.81172,5.23607c1.28767,1.23229 5.88816,2.13262 5.88816,2.13262c0,0 -4.45728,0.36803 -5.6225,1.58561c-1.28018,1.33772 -1.7462,6.11427 -1.7462,6.11427z"/><path d="M17.52985,264.01957c0,0 -0.88383,-4.68837 -2.16772,-5.91703c-1.28275,-1.22757 -5.53217,-1.45166 -5.53217,-1.45166c0,0 4.66397,-0.9793 5.93729,-2.30985c1.17501,-1.22782 1.43141,-5.39003 1.43141,-5.39003c0,0 0.53283,4.01218 1.81173,5.23607c1.28767,1.23229 5.88815,2.13262 5.88815,2.13262c0,0 -4.45727,0.36803 -5.62249,1.58561c-1.28018,1.33772 -1.7462,6.11427 -1.7462,6.11427z"/><path d="M10.99509,232.87378c-2.36283,-3.946 -1.07942,-9.06032 2.86658,-11.42315c3.38535,-2.02712 7.63063,-1.37051 10.26064,1.34872c-1.54082,-1.13434 -3.67359,-1.30229 -5.41789,-0.25782c-2.31885,1.38851 -3.07305,4.39392 -1.68454,6.71278c1.38851,2.31885 4.39392,3.07305 6.71278,1.68454c1.75264,-1.04947 2.61144,-3.02261 2.32682,-4.92486c1.18148,3.6134 -0.24189,7.69088 -3.64124,9.72638c-3.946,2.36283 -9.06032,1.07942 -11.42315,-2.86658z"/><path d="M52.06425,234.15012c0,0 -0.88383,-4.68837 -2.16772,-5.91703c-1.28275,-1.22757 -5.53217,-1.45166 -5.53217,-1.45166c0,0 4.66397,-0.9793 5.93729,-2.30985c1.17501,-1.22782 1.43141,-5.39003 1.43141,-5.39003c0,0 0.53283,4.01218 1.81173,5.23607c1.28767,1.23229 5.88815,2.13262 5.88815,2.13262c0,0 -4.45728,0.36803 -5.6225,1.58561c-1.28018,1.33772 -1.7462,6.11427 -1.7462,6.11427z"/><path d="M87.97223,206.4128c0,0 -0.88383,-4.68837 -2.16771,-5.91703c-1.28275,-1.22757 -5.53217,-1.45166 -5.53217,-1.45166c0,0 4.66397,-0.9793 5.93729,-2.30985c1.17501,-1.22782 1.43141,-5.39003 1.43141,-5.39003c0,0 0.53283,4.01218 1.81173,5.23608c1.28767,1.23229 5.88816,2.13262 5.88816,2.13262c0,0 -4.45728,0.36803 -5.6225,1.58561c-1.28018,1.33772 -1.7462,6.11427 -1.7462,6.11427z"/><path d="M79.95198,231.78524c-2.36283,-3.946 -1.07942,-9.06032 2.86658,-11.42315c3.38535,-2.02712 7.63063,-1.37051 10.26064,1.34872c-1.54082,-1.13434 -3.67359,-1.3023 -5.41789,-0.25783c-2.31885,1.38851 -3.07305,4.39393 -1.68454,6.71278c1.38851,2.31885 4.39392,3.07305 6.71278,1.68454c1.75264,-1.04947 2.61144,-3.02261 2.32682,-4.92486c1.18148,3.6134 -0.24189,7.69088 -3.64124,9.72639c-3.946,2.36283 -9.06032,1.07942 -11.42315,-2.86658z"/><path d="M18.31408,204.91769c0,0 -0.88383,-4.68837 -2.16772,-5.91703c-1.28275,-1.22757 -5.53217,-1.45166 -5.53217,-1.45166c0,0 4.66397,-0.9793 5.93729,-2.30985c1.17501,-1.22782 1.43141,-5.39003 1.43141,-5.39003c0,0 0.53283,4.01218 1.81173,5.23607c1.28767,1.23229 5.88815,2.13262 5.88815,2.13262c0,0 -4.45728,0.36803 -5.6225,1.58561c-1.28018,1.33772 -1.7462,6.11427 -1.7462,6.11427z"/></g><g fill="#8b71ff" stroke="#8b71ff" stroke-width="0.5"><path d="M47.17735,93.28047c-2.36283,-3.946 -1.07942,-9.06032 2.86658,-11.42315c3.38535,-2.02712 7.63063,-1.37051 10.26064,1.34872c-1.54082,-1.13434 -3.67359,-1.3023 -5.41789,-0.25783c-2.31885,1.38851 -3.07305,4.39392 -1.68454,6.71278c1.38851,2.31885 4.39392,3.07305 6.71278,1.68454c1.75264,-1.04947 2.61144,-3.02261 2.32682,-4.92486c1.18148,3.6134 -0.24189,7.69088 -3.64124,9.72638c-3.946,2.36283 -9.06032,1.07942 -11.42315,-2.86658z"/><path d="M46.20182,37.52246c-2.36283,-3.946 -1.07942,-9.06032 2.86658,-11.42315c3.38535,-2.02712 7.63063,-1.37051 10.26064,1.34872c-1.54082,-1.13434 -3.67359,-1.3023 -5.41789,-0.25783c-2.31885,1.38851 -3.07305,4.39393 -1.68454,6.71278c1.38851,2.31885 4.39392,3.07305 6.71278,1.68454c1.75264,-1.04947 2.61144,-3.02261 2.32682,-4.92486c1.18148,3.6134 -0.24189,7.69088 -3.64124,9.72639c-3.946,2.36283 -9.06032,1.07942 -11.42315,-2.86658z"/><path d="M89.08456,96.6112c0,0 -0.88383,-4.68837 -2.16772,-5.91703c-1.28275,-1.22757 -5.53217,-1.45166 -5.53217,-1.45166c0,0 4.66397,-0.9793 5.93728,-2.30985c1.17501,-1.22782 1.43141,-5.39003 1.43141,-5.39003c0,0 0.53283,4.01218 1.81172,5.23607c1.28767,1.23229 5.88816,2.13262 5.88816,2.13262c0,0 -4.45728,0.36803 -5.6225,1.58561c-1.28018,1.33772 -1.7462,6.11427 -1.7462,6.11427z"/><path d="M18.85859,97.39473c0,0 -0.88383,-4.68837 -2.16772,-5.91703c-1.28275,-1.22757 -5.53217,-1.45166 -5.53217,-1.45166c0,0 4.66397,-0.9793 5.93729,-2.30985c1.17501,-1.22782 1.43141,-5.39003 1.43141,-5.39003c0,0 0.53283,4.01218 1.81173,5.23607c1.28767,1.23229 5.88815,2.13262 5.88815,2.13262c0,0 -4.45727,0.36803 -5.62249,1.58561c-1.28018,1.33772 -1.7462,6.11427 -1.7462,6.11427z"/><path d="M12.32384,66.24891c-2.36283,-3.946 -1.07942,-9.06032 2.86658,-11.42315c3.38535,-2.02712 7.63063,-1.37051 10.26064,1.34872c-1.54082,-1.13434 -3.67359,-1.30229 -5.41789,-0.25782c-2.31885,1.38851 -3.07305,4.39392 -1.68454,6.71278c1.38851,2.31885 4.39392,3.07305 6.71278,1.68454c1.75264,-1.04947 2.61144,-3.02261 2.32682,-4.92486c1.18148,3.6134 -0.24189,7.69088 -3.64124,9.72638c-3.946,2.36283 -9.06032,1.07942 -11.42315,-2.86658z"/><path d="M53.39299,67.52527c0,0 -0.88383,-4.68837 -2.16772,-5.91703c-1.28275,-1.22757 -5.53217,-1.45166 -5.53217,-1.45166c0,0 4.66397,-0.9793 5.93729,-2.30985c1.17501,-1.22782 1.43141,-5.39003 1.43141,-5.39003c0,0 0.53283,4.01218 1.81173,5.23607c1.28767,1.23229 5.88815,2.13262 5.88815,2.13262c0,0 -4.45728,0.36803 -5.6225,1.58561c-1.28018,1.33772 -1.7462,6.11427 -1.7462,6.11427z"/><path d="M89.30098,39.78794c0,0 -0.88383,-4.68837 -2.16771,-5.91703c-1.28275,-1.22757 -5.53217,-1.45166 -5.53217,-1.45166c0,0 4.66397,-0.9793 5.93729,-2.30985c1.17501,-1.22782 1.43141,-5.39003 1.43141,-5.39003c0,0 0.53283,4.01218 1.81173,5.23608c1.28767,1.23229 5.88816,2.13262 5.88816,2.13262c0,0 -4.45728,0.36803 -5.6225,1.58561c-1.28018,1.33772 -1.7462,6.11427 -1.7462,6.11427z"/><path d="M81.28072,65.16039c-2.36283,-3.946 -1.07942,-9.06032 2.86658,-11.42315c3.38535,-2.02712 7.63063,-1.37051 10.26064,1.34872c-1.54082,-1.13434 -3.67359,-1.3023 -5.41789,-0.25783c-2.31885,1.38851 -3.07305,4.39393 -1.68454,6.71278c1.38851,2.31885 4.39392,3.07305 6.71278,1.68454c1.75264,-1.04947 2.61144,-3.02261 2.32682,-4.92486c1.18148,3.6134 -0.24189,7.69088 -3.64124,9.72639c-3.946,2.36283 -9.06032,1.07942 -11.42315,-2.86658z"/><path d="M19.64283,38.29284c0,0 -0.88383,-4.68837 -2.16772,-5.91703c-1.28275,-1.22757 -5.53217,-1.45166 -5.53217,-1.45166c0,0 4.66397,-0.9793 5.93729,-2.30985c1.17501,-1.22782 1.43141,-5.39003 1.43141,-5.39003c0,0 0.53283,4.01218 1.81173,5.23607c1.28767,1.23229 5.88815,2.13262 5.88815,2.13262c0,0 -4.45728,0.36803 -5.6225,1.58561c-1.28018,1.33772 -1.7462,6.11427 -1.7462,6.11427z"/></g><g fill="#8b71ff" stroke="#8b71ff" stroke-width="0.5"><path d="M147.97957,343.30802c-2.36283,-3.946 -1.07942,-9.06032 2.86658,-11.42315c3.38535,-2.02712 7.63063,-1.37051 10.26064,1.34872c-1.54082,-1.13434 -3.67359,-1.3023 -5.41789,-0.25783c-2.31885,1.38851 -3.07305,4.39392 -1.68454,6.71278c1.38851,2.31885 4.39392,3.07305 6.71278,1.68454c1.75264,-1.04947 2.61144,-3.02261 2.32682,-4.92486c1.18148,3.6134 -0.24189,7.69088 -3.64124,9.72638c-3.946,2.36283 -9.06032,1.07942 -11.42315,-2.86658z"/><path d="M147.00402,287.55001c-2.36283,-3.946 -1.07942,-9.06032 2.86658,-11.42315c3.38535,-2.02712 7.63063,-1.37051 10.26064,1.34872c-1.54082,-1.13434 -3.67359,-1.3023 -5.41789,-0.25783c-2.31885,1.38851 -3.07305,4.39393 -1.68454,6.71278c1.38851,2.31885 4.39392,3.07305 6.71278,1.68454c1.75264,-1.04947 2.61144,-3.02261 2.32682,-4.92486c1.18148,3.6134 -0.24189,7.69088 -3.64124,9.72639c-3.946,2.36283 -9.06032,1.07942 -11.42315,-2.86658z"/><path d="M189.88678,346.63875c0,0 -0.88383,-4.68837 -2.16772,-5.91703c-1.28275,-1.22757 -5.53217,-1.45166 -5.53217,-1.45166c0,0 4.66397,-0.9793 5.93728,-2.30985c1.17501,-1.22782 1.43141,-5.39003 1.43141,-5.39003c0,0 0.53283,4.01218 1.81172,5.23607c1.28767,1.23229 5.88816,2.13262 5.88816,2.13262c0,0 -4.45728,0.36803 -5.6225,1.58561c-1.28018,1.33772 -1.7462,6.11427 -1.7462,6.11427z"/><path d="M119.66081,347.42226c0,0 -0.88383,-4.68837 -2.16772,-5.91703c-1.28275,-1.22757 -5.53217,-1.45166 -5.53217,-1.45166c0,0 4.66397,-0.9793 5.93729,-2.30985c1.17501,-1.22782 1.43141,-5.39003 1.43141,-5.39003c0,0 0.53283,4.01218 1.81173,5.23607c1.28767,1.23229 5.88815,2.13262 5.88815,2.13262c0,0 -4.45727,0.36803 -5.62249,1.58561c-1.28018,1.33772 -1.7462,6.11427 -1.7462,6.11427z"/><path d="M113.12606,316.27646c-2.36283,-3.946 -1.07942,-9.06032 2.86658,-11.42315c3.38535,-2.02712 7.63063,-1.37051 10.26064,1.34872c-1.54082,-1.13434 -3.67359,-1.30229 -5.41789,-0.25782c-2.31885,1.38851 -3.07305,4.39392 -1.68454,6.71278c1.38851,2.31885 4.39392,3.07305 6.71278,1.68454c1.75264,-1.04947 2.61144,-3.02261 2.32682,-4.92486c1.18148,3.6134 -0.24189,7.69088 -3.64124,9.72638c-3.946,2.36283 -9.06032,1.07942 -11.42315,-2.86658z"/><path d="M154.19521,317.55283c0,0 -0.88383,-4.68837 -2.16772,-5.91703c-1.28275,-1.22757 -5.53217,-1.45166 -5.53217,-1.45166c0,0 4.66397,-0.9793 5.93729,-2.30985c1.17501,-1.22782 1.43141,-5.39003 1.43141,-5.39003c0,0 0.53283,4.01218 1.81173,5.23607c1.28767,1.23229 5.88815,2.13262 5.88815,2.13262c0,0 -4.45728,0.36803 -5.6225,1.58561c-1.28018,1.33772 -1.7462,6.11427 -1.7462,6.11427z"/><path d="M190.1032,289.81548c0,0 -0.88383,-4.68837 -2.16771,-5.91703c-1.28275,-1.22757 -5.53217,-1.45166 -5.53217,-1.45166c0,0 4.66397,-0.9793 5.93729,-2.30985c1.17501,-1.22782 1.43141,-5.39003 1.43141,-5.39003c0,0 0.53283,4.01218 1.81173,5.23608c1.28767,1.23229 5.88816,2.13262 5.88816,2.13262c0,0 -4.45728,0.36803 -5.6225,1.58561c-1.28018,1.33772 -1.7462,6.11427 -1.7462,6.11427z"/><path d="M182.08296,315.18795c-2.36283,-3.946 -1.07942,-9.06032 2.86658,-11.42315c3.38535,-2.02712 7.63063,-1.37051 10.26064,1.34872c-1.54082,-1.13434 -3.67359,-1.3023 -5.41789,-0.25783c-2.31885,1.38851 -3.07305,4.39393 -1.68454,6.71278c1.38851,2.31885 4.39392,3.07305 6.71278,1.68454c1.75264,-1.04947 2.61144,-3.02261 2.32682,-4.92486c1.18148,3.6134 -0.24189,7.69088 -3.64124,9.72639c-3.946,2.36283 -9.06032,1.07942 -11.42315,-2.86658z"/><path d="M120.44506,288.32039c0,0 -0.88383,-4.68837 -2.16772,-5.91703c-1.28275,-1.22757 -5.53217,-1.45166 -5.53217,-1.45166c0,0 4.66397,-0.9793 5.93729,-2.30985c1.17501,-1.22782 1.43141,-5.39003 1.43141,-5.39003c0,0 0.53283,4.01218 1.81173,5.23607c1.28767,1.23229 5.88815,2.13262 5.88815,2.13262c0,0 -4.45728,0.36803 -5.6225,1.58561c-1.28018,1.33772 -1.7462,6.11427 -1.7462,6.11427z"/></g><g fill="#8b71ff" stroke="#8b71ff" stroke-width="0.5"><path d="M112.97814,258.53783c-2.36283,-3.946 -1.07942,-9.06032 2.86658,-11.42315c3.38535,-2.02712 7.63063,-1.37051 10.26064,1.34872c-1.54082,-1.13434 -3.67359,-1.3023 -5.41789,-0.25783c-2.31885,1.38851 -3.07305,4.39393 -1.68454,6.71278c1.38851,2.31885 4.39392,3.07305 6.71278,1.68454c1.75264,-1.04947 2.61144,-3.02261 2.32682,-4.92486c1.18148,3.6134 -0.24189,7.69088 -3.64124,9.72639c-3.946,2.36283 -9.06032,1.07942 -11.42315,-2.86658z"/><path d="M180.68832,257.99244c-2.36283,-3.946 -1.07942,-9.06032 2.86658,-11.42315c3.38535,-2.02712 7.63063,-1.37051 10.26064,1.34872c-1.54082,-1.13434 -3.67359,-1.3023 -5.41789,-0.25783c-2.31885,1.38851 -3.07305,4.39392 -1.68454,6.71278c1.38851,2.31885 4.39392,3.07305 6.71278,1.68454c1.75264,-1.04947 2.61144,-3.02261 2.32682,-4.92486c1.18148,3.6134 -0.24189,7.69088 -3.64124,9.72638c-3.946,2.36283 -9.06032,1.07942 -11.42315,-2.86658z"/><path d="M111.23419,207.15348c-2.36283,-3.946 -1.07942,-9.06032 2.86658,-11.42315c3.38535,-2.02712 7.63063,-1.37051 10.26064,1.34872c-1.54082,-1.13434 -3.67359,-1.3023 -5.41789,-0.25783c-2.31885,1.38851 -3.07305,4.39392 -1.68454,6.71278c1.38851,2.31885 4.39392,3.07305 6.71278,1.68454c1.75264,-1.04947 2.61144,-3.02261 2.32682,-4.92486c1.18148,3.6134 -0.24189,7.69088 -3.64124,9.72638c-3.946,2.36283 -9.06032,1.07942 -11.42315,-2.86658z"/><path d="M184.49627,205.95492c-2.36283,-3.946 -1.07942,-9.06032 2.86658,-11.42315c3.38535,-2.02712 7.63063,-1.37051 10.26064,1.34872c-1.54082,-1.13434 -3.67359,-1.3023 -5.41789,-0.25783c-2.31885,1.38851 -3.07305,4.39393 -1.68454,6.71278c1.38851,2.31885 4.39392,3.07305 6.71278,1.68454c1.75264,-1.04947 2.61144,-3.02261 2.32682,-4.92486c1.18148,3.6134 -0.24189,7.69088 -3.64124,9.72639c-3.946,2.36283 -9.06032,1.07942 -11.42315,-2.86658z"/><path d="M151.64045,262.12041c0,0 -0.88383,-4.68837 -2.16772,-5.91703c-1.28275,-1.22757 -5.53217,-1.45166 -5.53217,-1.45166c0,0 4.66397,-0.9793 5.93728,-2.30985c1.17501,-1.22782 1.43141,-5.39003 1.43141,-5.39003c0,0 0.53283,4.01218 1.81172,5.23607c1.28767,1.23229 5.88816,2.13262 5.88816,2.13262c0,0 -4.45728,0.36803 -5.6225,1.58561c-1.28018,1.33772 -1.7462,6.11427 -1.7462,6.11427z"/><path d="M119.41663,234.46873c0,0 -0.88383,-4.68837 -2.16772,-5.91703c-1.28275,-1.22757 -5.53217,-1.45166 -5.53217,-1.45166c0,0 4.66397,-0.9793 5.93729,-2.30985c1.17501,-1.22782 1.43141,-5.39003 1.43141,-5.39003c0,0 0.53283,4.01218 1.81173,5.23607c1.28767,1.23229 5.88815,2.13262 5.88815,2.13262c0,0 -4.45727,0.36803 -5.62249,1.58561c-1.28018,1.33772 -1.7462,6.11427 -1.7462,6.11427z"/><path d="M149.5553,231.75811c-2.36283,-3.946 -1.07942,-9.06032 2.86658,-11.42315c3.38535,-2.02712 7.63063,-1.37051 10.26064,1.34872c-1.54082,-1.13434 -3.67359,-1.30229 -5.41789,-0.25782c-2.31885,1.38851 -3.07305,4.39392 -1.68454,6.71278c1.38851,2.31885 4.39392,3.07305 6.71278,1.68454c1.75264,-1.04947 2.61144,-3.02261 2.32682,-4.92486c1.18148,3.6134 -0.24189,7.69088 -3.64124,9.72638c-3.946,2.36283 -9.06032,1.07942 -11.42315,-2.86658z"/><path d="M155.01403,209.64853c0,0 -0.88383,-4.68837 -2.16772,-5.91703c-1.28275,-1.22757 -5.53217,-1.45166 -5.53217,-1.45166c0,0 4.66397,-0.9793 5.93729,-2.30985c1.17501,-1.22782 1.43141,-5.39003 1.43141,-5.39003c0,0 0.53283,4.01218 1.81173,5.23607c1.28767,1.23229 5.88815,2.13262 5.88815,2.13262c0,0 -4.45728,0.36803 -5.6225,1.58561c-1.28018,1.33772 -1.7462,6.11427 -1.7462,6.11427z"/><path d="M187.99879,234.79533c0,0 -0.88383,-4.68837 -2.16771,-5.91703c-1.28275,-1.22757 -5.53217,-1.45166 -5.53217,-1.45166c0,0 4.66397,-0.9793 5.93729,-2.30985c1.17501,-1.22782 1.43141,-5.39003 1.43141,-5.39003c0,0 0.53283,4.01218 1.81173,5.23608c1.28767,1.23229 5.88816,2.13262 5.88816,2.13262c0,0 -4.45728,0.36803 -5.6225,1.58561c-1.28018,1.33772 -1.7462,6.11427 -1.7462,6.11427z"/></g><g fill="#8b71ff" stroke="#8b71ff" stroke-width="0.5"><path d="M215.68016,336.62552c-2.36283,-3.946 -1.07942,-9.06032 2.86658,-11.42315c3.38535,-2.02712 7.63063,-1.37051 10.26064,1.34872c-1.54082,-1.13434 -3.67359,-1.3023 -5.41789,-0.25783c-2.31885,1.38851 -3.07305,4.39393 -1.68454,6.71278c1.38851,2.31885 4.39392,3.07305 6.71278,1.68454c1.75264,-1.04947 2.61144,-3.02261 2.32682,-4.92486c1.18148,3.6134 -0.24189,7.69088 -3.64124,9.72639c-3.946,2.36283 -9.06032,1.07942 -11.42315,-2.86658z"/><path d="M283.39032,336.08013c-2.36283,-3.946 -1.07942,-9.06032 2.86658,-11.42315c3.38535,-2.02712 7.63063,-1.37051 10.26064,1.34872c-1.54082,-1.13434 -3.67359,-1.3023 -5.41789,-0.25783c-2.31885,1.38851 -3.07305,4.39392 -1.68454,6.71278c1.38851,2.31885 4.39392,3.07305 6.71278,1.68454c1.75264,-1.04947 2.61144,-3.02261 2.32682,-4.92486c1.18148,3.6134 -0.24189,7.69088 -3.64124,9.72638c-3.946,2.36283 -9.06032,1.07942 -11.42315,-2.86658z"/><path d="M213.93621,285.24118c-2.36283,-3.946 -1.07942,-9.06032 2.86658,-11.42315c3.38535,-2.02712 7.63063,-1.37051 10.26064,1.34872c-1.54082,-1.13434 -3.67359,-1.3023 -5.41789,-0.25783c-2.31885,1.38851 -3.07305,4.39392 -1.68454,6.71278c1.38851,2.31885 4.39392,3.07305 6.71278,1.68454c1.75264,-1.04947 2.61144,-3.02261 2.32682,-4.92486c1.18148,3.6134 -0.24189,7.69088 -3.64124,9.72638c-3.946,2.36283 -9.06032,1.07942 -11.42315,-2.86658z"/><path d="M287.19826,284.04262c-2.36283,-3.946 -1.07942,-9.06032 2.86658,-11.42315c3.38535,-2.02712 7.63063,-1.37051 10.26064,1.34872c-1.54082,-1.13434 -3.67359,-1.3023 -5.41789,-0.25783c-2.31885,1.38851 -3.07305,4.39393 -1.68454,6.71278c1.38851,2.31885 4.39392,3.07305 6.71278,1.68454c1.75264,-1.04947 2.61144,-3.02261 2.32682,-4.92486c1.18148,3.6134 -0.24189,7.69088 -3.64124,9.72639c-3.946,2.36283 -9.06032,1.07942 -11.42315,-2.86658z"/><path d="M254.34246,340.20811c0,0 -0.88383,-4.68837 -2.16772,-5.91703c-1.28275,-1.22757 -5.53217,-1.45166 -5.53217,-1.45166c0,0 4.66397,-0.9793 5.93728,-2.30985c1.17501,-1.22782 1.43141,-5.39003 1.43141,-5.39003c0,0 0.53283,4.01218 1.81172,5.23607c1.28767,1.23229 5.88816,2.13262 5.88816,2.13262c0,0 -4.45728,0.36803 -5.6225,1.58561c-1.28018,1.33772 -1.7462,6.11427 -1.7462,6.11427z"/><path d="M222.11865,312.55643c0,0 -0.88383,-4.68837 -2.16772,-5.91703c-1.28275,-1.22757 -5.53217,-1.45166 -5.53217,-1.45166c0,0 4.66397,-0.9793 5.93729,-2.30985c1.17501,-1.22782 1.43141,-5.39003 1.43141,-5.39003c0,0 0.53283,4.01218 1.81173,5.23607c1.28767,1.23229 5.88815,2.13262 5.88815,2.13262c0,0 -4.45727,0.36803 -5.62249,1.58561c-1.28018,1.33772 -1.7462,6.11427 -1.7462,6.11427z"/><path d="M252.2573,309.84583c-2.36283,-3.946 -1.07942,-9.06032 2.86658,-11.42315c3.38535,-2.02712 7.63063,-1.37051 10.26064,1.34872c-1.54082,-1.13434 -3.67359,-1.30229 -5.41789,-0.25782c-2.31885,1.38851 -3.07305,4.39392 -1.68454,6.71278c1.38851,2.31885 4.39392,3.07305 6.71278,1.68454c1.75264,-1.04947 2.61144,-3.02261 2.32682,-4.92486c1.18148,3.6134 -0.24189,7.69088 -3.64124,9.72638c-3.946,2.36283 -9.06032,1.07942 -11.42315,-2.86658z"/><path d="M257.71604,287.73623c0,0 -0.88383,-4.68837 -2.16772,-5.91703c-1.28275,-1.22757 -5.53217,-1.45166 -5.53217,-1.45166c0,0 4.66397,-0.9793 5.93729,-2.30985c1.17501,-1.22782 1.43141,-5.39003 1.43141,-5.39003c0,0 0.53283,4.01218 1.81173,5.23607c1.28767,1.23229 5.88815,2.13262 5.88815,2.13262c0,0 -4.45728,0.36803 -5.6225,1.58561c-1.28018,1.33772 -1.7462,6.11427 -1.7462,6.11427z"/><path d="M290.70078,312.88302c0,0 -0.88383,-4.68837 -2.16771,-5.91703c-1.28275,-1.22757 -5.53217,-1.45166 -5.53217,-1.45166c0,0 4.66397,-0.9793 5.93729,-2.30985c1.17501,-1.22782 1.43141,-5.39003 1.43141,-5.39003c0,0 0.53283,4.01218 1.81173,5.23608c1.28767,1.23229 5.88816,2.13262 5.88816,2.13262c0,0 -4.45728,0.36803 -5.6225,1.58561c-1.28018,1.33772 -1.7462,6.11427 -1.7462,6.11427z"/></g><g fill="#8b71ff" stroke="#8b71ff" stroke-width="0.5"><path d="M249.6114,257.92467c-2.36283,-3.946 -1.07942,-9.06032 2.86658,-11.42315c3.38535,-2.02712 7.63063,-1.37051 10.26064,1.34872c-1.54082,-1.13434 -3.67359,-1.3023 -5.41789,-0.25783c-2.31885,1.38851 -3.07305,4.39392 -1.68454,6.71278c1.38851,2.31885 4.39392,3.07305 6.71278,1.68454c1.75264,-1.04947 2.61144,-3.02261 2.32682,-4.92486c1.18148,3.6134 -0.24189,7.69088 -3.64124,9.72638c-3.946,2.36283 -9.06032,1.07942 -11.42315,-2.86658z"/><path d="M248.63585,202.16666c-2.36283,-3.946 -1.07942,-9.06032 2.86658,-11.42315c3.38535,-2.02712 7.63063,-1.37051 10.26064,1.34872c-1.54082,-1.13434 -3.67359,-1.3023 -5.41789,-0.25783c-2.31885,1.38851 -3.07305,4.39393 -1.68454,6.71278c1.38851,2.31885 4.39392,3.07305 6.71278,1.68454c1.75264,-1.04947 2.61144,-3.02261 2.32682,-4.92486c1.18148,3.6134 -0.24189,7.69088 -3.64124,9.72639c-3.946,2.36283 -9.06032,1.07942 -11.42315,-2.86658z"/><path d="M291.5186,261.25539c0,0 -0.88383,-4.68837 -2.16772,-5.91703c-1.28275,-1.22757 -5.53217,-1.45166 -5.53217,-1.45166c0,0 4.66397,-0.9793 5.93728,-2.30985c1.17501,-1.22782 1.43141,-5.39003 1.43141,-5.39003c0,0 0.53283,4.01218 1.81172,5.23607c1.28767,1.23229 5.88816,2.13262 5.88816,2.13262c0,0 -4.45728,0.36803 -5.6225,1.58561c-1.28018,1.33772 -1.7462,6.11427 -1.7462,6.11427z"/><path d="M221.29264,262.03891c0,0 -0.88383,-4.68837 -2.16772,-5.91703c-1.28275,-1.22757 -5.53217,-1.45166 -5.53217,-1.45166c0,0 4.66397,-0.9793 5.93729,-2.30985c1.17501,-1.22782 1.43141,-5.39003 1.43141,-5.39003c0,0 0.53283,4.01218 1.81173,5.23607c1.28767,1.23229 5.88815,2.13262 5.88815,2.13262c0,0 -4.45727,0.36803 -5.62249,1.58561c-1.28018,1.33772 -1.7462,6.11427 -1.7462,6.11427z"/><path d="M214.75789,230.89311c-2.36283,-3.946 -1.07942,-9.06032 2.86658,-11.42315c3.38535,-2.02712 7.63063,-1.37051 10.26064,1.34872c-1.54082,-1.13434 -3.67359,-1.30229 -5.41789,-0.25782c-2.31885,1.38851 -3.07305,4.39392 -1.68454,6.71278c1.38851,2.31885 4.39392,3.07305 6.71278,1.68454c1.75264,-1.04947 2.61144,-3.02261 2.32682,-4.92486c1.18148,3.6134 -0.24189,7.69088 -3.64124,9.72638c-3.946,2.36283 -9.06032,1.07942 -11.42315,-2.86658z"/><path d="M255.82704,232.16946c0,0 -0.88383,-4.68837 -2.16772,-5.91703c-1.28275,-1.22757 -5.53217,-1.45166 -5.53217,-1.45166c0,0 4.66397,-0.9793 5.93729,-2.30985c1.17501,-1.22782 1.43141,-5.39003 1.43141,-5.39003c0,0 0.53283,4.01218 1.81173,5.23607c1.28767,1.23229 5.88815,2.13262 5.88815,2.13262c0,0 -4.45728,0.36803 -5.6225,1.58561c-1.28018,1.33772 -1.7462,6.11427 -1.7462,6.11427z"/><path d="M291.73501,204.43213c0,0 -0.88383,-4.68837 -2.16771,-5.91703c-1.28275,-1.22757 -5.53217,-1.45166 -5.53217,-1.45166c0,0 4.66397,-0.9793 5.93729,-2.30985c1.17501,-1.22782 1.43141,-5.39003 1.43141,-5.39003c0,0 0.53283,4.01218 1.81173,5.23608c1.28767,1.23229 5.88816,2.13262 5.88816,2.13262c0,0 -4.45728,0.36803 -5.6225,1.58561c-1.28018,1.33772 -1.7462,6.11427 -1.7462,6.11427z"/><path d="M283.71475,229.80458c-2.36283,-3.946 -1.07942,-9.06032 2.86658,-11.42315c3.38535,-2.02712 7.63063,-1.37051 10.26064,1.34872c-1.54082,-1.13434 -3.67359,-1.3023 -5.41789,-0.25783c-2.31885,1.38851 -3.07305,4.39393 -1.68454,6.71278c1.38851,2.31885 4.39392,3.07305 6.71278,1.68454c1.75264,-1.04947 2.61144,-3.02261 2.32682,-4.92486c1.18148,3.6134 -0.24189,7.69088 -3.64124,9.72639c-3.946,2.36283 -9.06032,1.07942 -11.42315,-2.86658z"/><path d="M222.07687,202.93702c0,0 -0.88383,-4.68837 -2.16772,-5.91703c-1.28275,-1.22757 -5.53217,-1.45166 -5.53217,-1.45166c0,0 4.66397,-0.9793 5.93729,-2.30985c1.17501,-1.22782 1.43141,-5.39003 1.43141,-5.39003c0,0 0.53283,4.01218 1.81173,5.23607c1.28767,1.23229 5.88815,2.13262 5.88815,2.13262c0,0 -4.45728,0.36803 -5.6225,1.58561c-1.28018,1.33772 -1.7462,6.11427 -1.7462,6.11427z"/></g><g fill="#8b71ff" stroke="#8b71ff" stroke-width="0.5"><path d="M354.59277,342.43401c-2.36283,-3.946 -1.07942,-9.06032 2.86658,-11.42315c3.38535,-2.02712 7.63063,-1.37051 10.26064,1.34872c-1.54082,-1.13434 -3.67359,-1.3023 -5.41789,-0.25783c-2.31885,1.38851 -3.07305,4.39392 -1.68454,6.71278c1.38851,2.31885 4.39392,3.07305 6.71278,1.68454c1.75264,-1.04947 2.61144,-3.02261 2.32682,-4.92486c1.18148,3.6134 -0.24189,7.69088 -3.64124,9.72638c-3.946,2.36283 -9.06032,1.07942 -11.42315,-2.86658z"/><path d="M353.61722,286.676c-2.36283,-3.946 -1.07942,-9.06032 2.86658,-11.42315c3.38535,-2.02712 7.63063,-1.37051 10.26064,1.34872c-1.54082,-1.13434 -3.67359,-1.3023 -5.41789,-0.25783c-2.31885,1.38851 -3.07305,4.39393 -1.68454,6.71278c1.38851,2.31885 4.39392,3.07305 6.71278,1.68454c1.75264,-1.04947 2.61144,-3.02261 2.32682,-4.92486c1.18148,3.6134 -0.24189,7.69088 -3.64124,9.72639c-3.946,2.36283 -9.06032,1.07942 -11.42315,-2.86658z"/><path d="M396.49998,345.76475c0,0 -0.88383,-4.68837 -2.16772,-5.91703c-1.28275,-1.22757 -5.53217,-1.45166 -5.53217,-1.45166c0,0 4.66397,-0.9793 5.93728,-2.30985c1.17501,-1.22782 1.43141,-5.39003 1.43141,-5.39003c0,0 0.53283,4.01218 1.81172,5.23607c1.28767,1.23229 5.88816,2.13262 5.88816,2.13262c0,0 -4.45728,0.36803 -5.6225,1.58561c-1.28018,1.33772 -1.7462,6.11427 -1.7462,6.11427z"/><path d="M326.27401,346.54827c0,0 -0.88383,-4.68837 -2.16772,-5.91703c-1.28275,-1.22757 -5.53217,-1.45166 -5.53217,-1.45166c0,0 4.66397,-0.9793 5.93729,-2.30985c1.17501,-1.22782 1.43141,-5.39003 1.43141,-5.39003c0,0 0.53283,4.01218 1.81173,5.23607c1.28767,1.23229 5.88815,2.13262 5.88815,2.13262c0,0 -4.45727,0.36803 -5.62249,1.58561c-1.28018,1.33772 -1.7462,6.11427 -1.7462,6.11427z"/><path d="M319.73926,315.40247c-2.36283,-3.946 -1.07942,-9.06032 2.86658,-11.42315c3.38535,-2.02712 7.63063,-1.37051 10.26064,1.34872c-1.54082,-1.13434 -3.67359,-1.30229 -5.41789,-0.25782c-2.31885,1.38851 -3.07305,4.39392 -1.68454,6.71278c1.38851,2.31885 4.39392,3.07305 6.71278,1.68454c1.75264,-1.04947 2.61144,-3.02261 2.32682,-4.92486c1.18148,3.6134 -0.24189,7.69088 -3.64124,9.72638c-3.946,2.36283 -9.06032,1.07942 -11.42315,-2.86658z"/><path d="M360.8084,316.67882c0,0 -0.88383,-4.68837 -2.16772,-5.91703c-1.28275,-1.22757 -5.53217,-1.45166 -5.53217,-1.45166c0,0 4.66397,-0.9793 5.93729,-2.30985c1.17501,-1.22782 1.43141,-5.39003 1.43141,-5.39003c0,0 0.53283,4.01218 1.81173,5.23607c1.28767,1.23229 5.88815,2.13262 5.88815,2.13262c0,0 -4.45728,0.36803 -5.6225,1.58561c-1.28018,1.33772 -1.7462,6.11427 -1.7462,6.11427z"/><path d="M396.7164,288.94147c0,0 -0.88383,-4.68837 -2.16771,-5.91703c-1.28275,-1.22757 -5.53217,-1.45166 -5.53217,-1.45166c0,0 4.66397,-0.9793 5.93729,-2.30985c1.17501,-1.22782 1.43141,-5.39003 1.43141,-5.39003c0,0 0.53283,4.01218 1.81173,5.23608c1.28767,1.23229 5.88816,2.13262 5.88816,2.13262c0,0 -4.45728,0.36803 -5.6225,1.58561c-1.28018,1.33772 -1.7462,6.11427 -1.7462,6.11427z"/><path d="M388.69614,314.31395c-2.36283,-3.946 -1.07942,-9.06032 2.86658,-11.42315c3.38535,-2.02712 7.63063,-1.37051 10.26064,1.34872c-1.54082,-1.13434 -3.67359,-1.3023 -5.41789,-0.25783c-2.31885,1.38851 -3.07305,4.39393 -1.68454,6.71278c1.38851,2.31885 4.39392,3.07305 6.71278,1.68454c1.75264,-1.04947 2.61144,-3.02261 2.32682,-4.92486c1.18148,3.6134 -0.24189,7.69088 -3.64124,9.72639c-3.946,2.36283 -9.06032,1.07942 -11.42315,-2.86658z"/><path d="M327.05823,287.44638c0,0 -0.88383,-4.68837 -2.16772,-5.91703c-1.28275,-1.22757 -5.53217,-1.45166 -5.53217,-1.45166c0,0 4.66397,-0.9793 5.93729,-2.30985c1.17501,-1.22782 1.43141,-5.39003 1.43141,-5.39003c0,0 0.53283,4.01218 1.81173,5.23607c1.28767,1.23229 5.88815,2.13262 5.88815,2.13262c0,0 -4.45728,0.36803 -5.6225,1.58561c-1.28018,1.33772 -1.7462,6.11427 -1.7462,6.11427z"/></g><g fill="#8b71ff" stroke="#8b71ff" stroke-width="0.5"><path d="M148.72275,172.12066c-2.36283,-3.946 -1.07942,-9.06032 2.86658,-11.42315c3.38535,-2.02712 7.63063,-1.37051 10.26064,1.34872c-1.54082,-1.13434 -3.67359,-1.3023 -5.41789,-0.25783c-2.31885,1.38851 -3.07305,4.39392 -1.68454,6.71278c1.38851,2.31885 4.39392,3.07305 6.71278,1.68454c1.75264,-1.04947 2.61144,-3.02261 2.32682,-4.92486c1.18148,3.6134 -0.24189,7.69088 -3.64124,9.72638c-3.946,2.36283 -9.06032,1.07942 -11.42315,-2.86658z"/><path d="M147.7472,116.36265c-2.36283,-3.946 -1.07942,-9.06032 2.86658,-11.42315c3.38535,-2.02712 7.63063,-1.37051 10.26064,1.34872c-1.54082,-1.13434 -3.67359,-1.3023 -5.41789,-0.25783c-2.31885,1.38851 -3.07305,4.39393 -1.68454,6.71278c1.38851,2.31885 4.39392,3.07305 6.71278,1.68454c1.75264,-1.04947 2.61144,-3.02261 2.32682,-4.92486c1.18148,3.6134 -0.24189,7.69088 -3.64124,9.72639c-3.946,2.36283 -9.06032,1.07942 -11.42315,-2.86658z"/><path d="M190.62997,175.45141c0,0 -0.88383,-4.68837 -2.16772,-5.91703c-1.28275,-1.22757 -5.53217,-1.45166 -5.53217,-1.45166c0,0 4.66397,-0.9793 5.93728,-2.30985c1.17501,-1.22782 1.43141,-5.39003 1.43141,-5.39003c0,0 0.53283,4.01218 1.81172,5.23607c1.28767,1.23229 5.88816,2.13262 5.88816,2.13262c0,0 -4.45728,0.36803 -5.6225,1.58561c-1.28018,1.33772 -1.7462,6.11427 -1.7462,6.11427z"/><path d="M120.40399,176.23492c0,0 -0.88383,-4.68837 -2.16772,-5.91703c-1.28275,-1.22757 -5.53217,-1.45166 -5.53217,-1.45166c0,0 4.66397,-0.9793 5.93729,-2.30985c1.17501,-1.22782 1.43141,-5.39003 1.43141,-5.39003c0,0 0.53283,4.01218 1.81173,5.23607c1.28767,1.23229 5.88815,2.13262 5.88815,2.13262c0,0 -4.45727,0.36803 -5.62249,1.58561c-1.28018,1.33772 -1.7462,6.11427 -1.7462,6.11427z"/><path d="M113.86925,145.0891c-2.36283,-3.946 -1.07942,-9.06032 2.86658,-11.42315c3.38535,-2.02712 7.63063,-1.37051 10.26064,1.34872c-1.54082,-1.13434 -3.67359,-1.30229 -5.41789,-0.25782c-2.31885,1.38851 -3.07305,4.39392 -1.68454,6.71278c1.38851,2.31885 4.39392,3.07305 6.71278,1.68454c1.75264,-1.04947 2.61144,-3.02261 2.32682,-4.92486c1.18148,3.6134 -0.24189,7.69088 -3.64124,9.72638c-3.946,2.36283 -9.06032,1.07942 -11.42315,-2.86658z"/><path d="M154.93839,146.36547c0,0 -0.88383,-4.68837 -2.16772,-5.91703c-1.28275,-1.22757 -5.53217,-1.45166 -5.53217,-1.45166c0,0 4.66397,-0.9793 5.93729,-2.30985c1.17501,-1.22782 1.43141,-5.39003 1.43141,-5.39003c0,0 0.53283,4.01218 1.81173,5.23607c1.28767,1.23229 5.88815,2.13262 5.88815,2.13262c0,0 -4.45728,0.36803 -5.6225,1.58561c-1.28018,1.33772 -1.7462,6.11427 -1.7462,6.11427z"/><path d="M190.8464,118.62813c0,0 -0.88383,-4.68837 -2.16771,-5.91703c-1.28275,-1.22757 -5.53217,-1.45166 -5.53217,-1.45166c0,0 4.66397,-0.9793 5.93729,-2.30985c1.17501,-1.22782 1.43141,-5.39003 1.43141,-5.39003c0,0 0.53283,4.01218 1.81173,5.23608c1.28767,1.23229 5.88816,2.13262 5.88816,2.13262c0,0 -4.45728,0.36803 -5.6225,1.58561c-1.28018,1.33772 -1.7462,6.11427 -1.7462,6.11427z"/><path d="M182.82614,144.00059c-2.36283,-3.946 -1.07942,-9.06032 2.86658,-11.42315c3.38535,-2.02712 7.63063,-1.37051 10.26064,1.34872c-1.54082,-1.13434 -3.67359,-1.3023 -5.41789,-0.25783c-2.31885,1.38851 -3.07305,4.39393 -1.68454,6.71278c1.38851,2.31885 4.39392,3.07305 6.71278,1.68454c1.75264,-1.04947 2.61144,-3.02261 2.32682,-4.92486c1.18148,3.6134 -0.24189,7.69088 -3.64124,9.72639c-3.946,2.36283 -9.06032,1.07942 -11.42315,-2.86658z"/><path d="M121.18822,117.13304c0,0 -0.88383,-4.68837 -2.16772,-5.91703c-1.28275,-1.22757 -5.53217,-1.45166 -5.53217,-1.45166c0,0 4.66397,-0.9793 5.93729,-2.30985c1.17501,-1.22782 1.43141,-5.39003 1.43141,-5.39003c0,0 0.53283,4.01218 1.81173,5.23607c1.28767,1.23229 5.88815,2.13262 5.88815,2.13262c0,0 -4.45728,0.36803 -5.6225,1.58561c-1.28018,1.33772 -1.7462,6.11427 -1.7462,6.11427z"/></g><g fill="#8b71ff" stroke="#8b71ff" stroke-width="0.5"><path d="M320.85833,254.15555c-2.36283,-3.946 -1.07942,-9.06032 2.86658,-11.42315c3.38535,-2.02712 7.63063,-1.37051 10.26064,1.34872c-1.54082,-1.13434 -3.67359,-1.3023 -5.41789,-0.25783c-2.31885,1.38851 -3.07305,4.39393 -1.68454,6.71278c1.38851,2.31885 4.39392,3.07305 6.71278,1.68454c1.75264,-1.04947 2.61144,-3.02261 2.32682,-4.92486c1.18148,3.6134 -0.24189,7.69088 -3.64124,9.72639c-3.946,2.36283 -9.06032,1.07942 -11.42315,-2.86658z"/><path d="M388.5685,253.61016c-2.36283,-3.946 -1.07942,-9.06032 2.86658,-11.42315c3.38535,-2.02712 7.63063,-1.37051 10.26064,1.34872c-1.54082,-1.13434 -3.67359,-1.3023 -5.41789,-0.25783c-2.31885,1.38851 -3.07305,4.39392 -1.68454,6.71278c1.38851,2.31885 4.39392,3.07305 6.71278,1.68454c1.75264,-1.04947 2.61144,-3.02261 2.32682,-4.92486c1.18148,3.6134 -0.24189,7.69088 -3.64124,9.72638c-3.946,2.36283 -9.06032,1.07942 -11.42315,-2.86658z"/><path d="M319.11438,202.77118c-2.36283,-3.946 -1.07942,-9.06032 2.86658,-11.42315c3.38535,-2.02712 7.63063,-1.37051 10.26064,1.34872c-1.54082,-1.13434 -3.67359,-1.3023 -5.41789,-0.25783c-2.31885,1.38851 -3.07305,4.39392 -1.68454,6.71278c1.38851,2.31885 4.39392,3.07305 6.71278,1.68454c1.75264,-1.04947 2.61144,-3.02261 2.32682,-4.92486c1.18148,3.6134 -0.24189,7.69088 -3.64124,9.72638c-3.946,2.36283 -9.06032,1.07942 -11.42315,-2.86658z"/><path d="M392.37645,201.57264c-2.36283,-3.946 -1.07942,-9.06032 2.86658,-11.42315c3.38535,-2.02712 7.63063,-1.37051 10.26064,1.34872c-1.54082,-1.13434 -3.67359,-1.3023 -5.41789,-0.25783c-2.31885,1.38851 -3.07305,4.39393 -1.68454,6.71278c1.38851,2.31885 4.39392,3.07305 6.71278,1.68454c1.75264,-1.04947 2.61144,-3.02261 2.32682,-4.92486c1.18148,3.6134 -0.24189,7.69088 -3.64124,9.72639c-3.946,2.36283 -9.06032,1.07942 -11.42315,-2.86658z"/><path d="M359.52064,257.73812c0,0 -0.88383,-4.68837 -2.16772,-5.91703c-1.28275,-1.22757 -5.53217,-1.45166 -5.53217,-1.45166c0,0 4.66397,-0.9793 5.93728,-2.30985c1.17501,-1.22782 1.43141,-5.39003 1.43141,-5.39003c0,0 0.53283,4.01218 1.81172,5.23607c1.28767,1.23229 5.88816,2.13262 5.88816,2.13262c0,0 -4.45728,0.36803 -5.6225,1.58561c-1.28018,1.33772 -1.7462,6.11427 -1.7462,6.11427z"/><path d="M327.29682,230.08646c0,0 -0.88383,-4.68837 -2.16772,-5.91703c-1.28275,-1.22757 -5.53217,-1.45166 -5.53217,-1.45166c0,0 4.66397,-0.9793 5.93729,-2.30985c1.17501,-1.22782 1.43141,-5.39003 1.43141,-5.39003c0,0 0.53283,4.01218 1.81173,5.23607c1.28767,1.23229 5.88815,2.13262 5.88815,2.13262c0,0 -4.45727,0.36803 -5.62249,1.58561c-1.28018,1.33772 -1.7462,6.11427 -1.7462,6.11427z"/><path d="M357.43548,227.37585c-2.36283,-3.946 -1.07942,-9.06032 2.86658,-11.42315c3.38535,-2.02712 7.63063,-1.37051 10.26064,1.34872c-1.54082,-1.13434 -3.67359,-1.30229 -5.41789,-0.25782c-2.31885,1.38851 -3.07305,4.39392 -1.68454,6.71278c1.38851,2.31885 4.39392,3.07305 6.71278,1.68454c1.75264,-1.04947 2.61144,-3.02261 2.32682,-4.92486c1.18148,3.6134 -0.24189,7.69088 -3.64124,9.72638c-3.946,2.36283 -9.06032,1.07942 -11.42315,-2.86658z"/><path d="M362.89422,205.26626c0,0 -0.88383,-4.68837 -2.16772,-5.91703c-1.28275,-1.22757 -5.53217,-1.45166 -5.53217,-1.45166c0,0 4.66397,-0.9793 5.93729,-2.30985c1.17501,-1.22782 1.43141,-5.39003 1.43141,-5.39003c0,0 0.53283,4.01218 1.81173,5.23607c1.28767,1.23229 5.88815,2.13262 5.88815,2.13262c0,0 -4.45728,0.36803 -5.6225,1.58561c-1.28018,1.33772 -1.7462,6.11427 -1.7462,6.11427z"/><path d="M395.87896,230.41303c0,0 -0.88383,-4.68837 -2.16771,-5.91703c-1.28275,-1.22757 -5.53217,-1.45166 -5.53217,-1.45166c0,0 4.66397,-0.9793 5.93729,-2.30985c1.17501,-1.22782 1.43141,-5.39003 1.43141,-5.39003c0,0 0.53283,4.01218 1.81173,5.23608c1.28767,1.23229 5.88816,2.13262 5.88816,2.13262c0,0 -4.45728,0.36803 -5.6225,1.58561c-1.28018,1.33772 -1.7462,6.11427 -1.7462,6.11427z"/></g><path d="M421.52981,339.74237c-2.36283,-3.946 -1.07942,-9.06032 2.86658,-11.42315c3.38535,-2.02712 7.63063,-1.37051 10.26064,1.34872c-1.54082,-1.13434 -3.67359,-1.3023 -5.41789,-0.25783c-2.31885,1.38851 -3.07305,4.39393 -1.68454,6.71278c1.38851,2.31885 4.39392,3.07305 6.71278,1.68454c1.75264,-1.04947 2.61144,-3.02261 2.32682,-4.92486c1.18148,3.6134 -0.24189,7.69088 -3.64124,9.72639c-3.946,2.36283 -9.06032,1.07942 -11.42315,-2.86658z" fill="#8b71ff" stroke="#8b71ff" stroke-width="0.5"/><path d="M419.78586,288.35803c-2.36283,-3.946 -1.07942,-9.06032 2.86658,-11.42315c3.38535,-2.02712 7.63063,-1.37051 10.26064,1.34872c-1.54082,-1.13434 -3.67359,-1.3023 -5.41789,-0.25783c-2.31885,1.38851 -3.07305,4.39392 -1.68454,6.71278c1.38851,2.31885 4.39392,3.07305 6.71278,1.68454c1.75264,-1.04947 2.61144,-3.02261 2.32682,-4.92486c1.18148,3.6134 -0.24189,7.69088 -3.64124,9.72638c-3.946,2.36283 -9.06032,1.07942 -11.42315,-2.86658z" fill="#8b71ff" stroke="#8b71ff" stroke-width="0.5"/><path d="M460.19211,343.32496c0,0 -0.88383,-4.68837 -2.16772,-5.91703c-1.28275,-1.22757 -5.53217,-1.45166 -5.53217,-1.45166c0,0 4.66397,-0.9793 5.93728,-2.30985c1.17501,-1.22782 1.43141,-5.39003 1.43141,-5.39003c0,0 0.53283,4.01218 1.81172,5.23607c1.28767,1.23229 5.88816,2.13262 5.88816,2.13262c0,0 -4.45728,0.36803 -5.6225,1.58561c-1.28018,1.33772 -1.7462,6.11427 -1.7462,6.11427z" fill="#8b71ff" stroke="#8b71ff" stroke-width="0.5"/><path d="M427.9683,315.67328c0,0 -0.88383,-4.68837 -2.16772,-5.91703c-1.28275,-1.22757 -5.53217,-1.45166 -5.53217,-1.45166c0,0 4.66397,-0.9793 5.93729,-2.30985c1.17501,-1.22782 1.43141,-5.39003 1.43141,-5.39003c0,0 0.53283,4.01218 1.81173,5.23607c1.28767,1.23229 5.88815,2.13262 5.88815,2.13262c0,0 -4.45727,0.36803 -5.62249,1.58561c-1.28018,1.33772 -1.7462,6.11427 -1.7462,6.11427z" fill="#8b71ff" stroke="#8b71ff" stroke-width="0.5"/><path d="M458.10696,312.96268c-2.36283,-3.946 -1.07942,-9.06032 2.86658,-11.42315c3.38535,-2.02712 7.63063,-1.37051 10.26064,1.34872c-1.54082,-1.13434 -3.67359,-1.30229 -5.41789,-0.25782c-2.31885,1.38851 -3.07305,4.39392 -1.68454,6.71278c1.38851,2.31885 4.39392,3.07305 6.71278,1.68454c1.75264,-1.04947 2.61144,-3.02261 2.32682,-4.92486c1.18148,3.6134 -0.24189,7.69088 -3.64124,9.72638c-3.946,2.36283 -9.06032,1.07942 -11.42315,-2.86658z" fill="#8b71ff" stroke="#8b71ff" stroke-width="0.5"/><path d="M463.5657,290.85308c0,0 -0.88383,-4.68837 -2.16772,-5.91703c-1.28275,-1.22757 -5.53217,-1.45166 -5.53217,-1.45166c0,0 4.66397,-0.9793 5.93729,-2.30985c1.17501,-1.22782 1.43141,-5.39003 1.43141,-5.39003c0,0 0.53283,4.01218 1.81173,5.23607c1.28767,1.23229 5.88815,2.13262 5.88815,2.13262c0,0 -4.45728,0.36803 -5.6225,1.58561c-1.28018,1.33772 -1.7462,6.11427 -1.7462,6.11427z" fill="#8b71ff" stroke="#8b71ff" stroke-width="0.5"/><g fill="#8b71ff" stroke="#8b71ff" stroke-width="0.5"><path d="M217.81476,170.5065c-2.36283,-3.946 -1.07942,-9.06032 2.86658,-11.42315c3.38535,-2.02712 7.63063,-1.37051 10.26064,1.34872c-1.54082,-1.13434 -3.67359,-1.3023 -5.41789,-0.25783c-2.31885,1.38851 -3.07305,4.39393 -1.68454,6.71278c1.38851,2.31885 4.39392,3.07305 6.71278,1.68454c1.75264,-1.04947 2.61144,-3.02261 2.32682,-4.92486c1.18148,3.6134 -0.24189,7.69088 -3.64124,9.72639c-3.946,2.36283 -9.06032,1.07942 -11.42315,-2.86658z"/><path d="M285.52491,169.9611c-2.36283,-3.946 -1.07942,-9.06032 2.86658,-11.42315c3.38535,-2.02712 7.63063,-1.37051 10.26064,1.34872c-1.54082,-1.13434 -3.67359,-1.3023 -5.41789,-0.25783c-2.31885,1.38851 -3.07305,4.39392 -1.68454,6.71278c1.38851,2.31885 4.39392,3.07305 6.71278,1.68454c1.75264,-1.04947 2.61144,-3.02261 2.32682,-4.92486c1.18148,3.6134 -0.24189,7.69088 -3.64124,9.72638c-3.946,2.36283 -9.06032,1.07942 -11.42315,-2.86658z"/><path d="M216.07079,119.12214c-2.36283,-3.946 -1.07942,-9.06032 2.86658,-11.42315c3.38535,-2.02712 7.63063,-1.37051 10.26064,1.34872c-1.54082,-1.13434 -3.67359,-1.3023 -5.41789,-0.25783c-2.31885,1.38851 -3.07305,4.39392 -1.68454,6.71278c1.38851,2.31885 4.39392,3.07305 6.71278,1.68454c1.75264,-1.04947 2.61144,-3.02261 2.32682,-4.92486c1.18148,3.6134 -0.24189,7.69088 -3.64124,9.72638c-3.946,2.36283 -9.06032,1.07942 -11.42315,-2.86658z"/><path d="M289.33286,117.92358c-2.36283,-3.946 -1.07942,-9.06032 2.86658,-11.42315c3.38535,-2.02712 7.63063,-1.37051 10.26064,1.34872c-1.54082,-1.13434 -3.67359,-1.3023 -5.41789,-0.25783c-2.31885,1.38851 -3.07305,4.39393 -1.68454,6.71278c1.38851,2.31885 4.39392,3.07305 6.71278,1.68454c1.75264,-1.04947 2.61144,-3.02261 2.32682,-4.92486c1.18148,3.6134 -0.24189,7.69088 -3.64124,9.72639c-3.946,2.36283 -9.06032,1.07942 -11.42315,-2.86658z"/><path d="M256.47704,174.0891c0,0 -0.88383,-4.68837 -2.16772,-5.91703c-1.28275,-1.22757 -5.53217,-1.45166 -5.53217,-1.45166c0,0 4.66397,-0.9793 5.93728,-2.30985c1.17501,-1.22782 1.43141,-5.39003 1.43141,-5.39003c0,0 0.53283,4.01218 1.81172,5.23607c1.28767,1.23229 5.88816,2.13262 5.88816,2.13262c0,0 -4.45728,0.36803 -5.6225,1.58561c-1.28018,1.33772 -1.7462,6.11427 -1.7462,6.11427z"/><path d="M224.25325,146.43741c0,0 -0.88383,-4.68837 -2.16772,-5.91703c-1.28275,-1.22757 -5.53217,-1.45166 -5.53217,-1.45166c0,0 4.66397,-0.9793 5.93729,-2.30985c1.17501,-1.22782 1.43141,-5.39003 1.43141,-5.39003c0,0 0.53283,4.01218 1.81173,5.23607c1.28767,1.23229 5.88815,2.13262 5.88815,2.13262c0,0 -4.45727,0.36803 -5.62249,1.58561c-1.28018,1.33772 -1.7462,6.11427 -1.7462,6.11427z"/><path d="M254.3919,143.72679c-2.36283,-3.946 -1.07942,-9.06032 2.86658,-11.42315c3.38535,-2.02712 7.63063,-1.37051 10.26064,1.34872c-1.54082,-1.13434 -3.67359,-1.30229 -5.41789,-0.25782c-2.31885,1.38851 -3.07305,4.39392 -1.68454,6.71278c1.38851,2.31885 4.39392,3.07305 6.71278,1.68454c1.75264,-1.04947 2.61144,-3.02261 2.32682,-4.92486c1.18148,3.6134 -0.24189,7.69088 -3.64124,9.72638c-3.946,2.36283 -9.06032,1.07942 -11.42315,-2.86658z"/><path d="M259.85065,121.61721c0,0 -0.88383,-4.68837 -2.16772,-5.91703c-1.28275,-1.22757 -5.53217,-1.45166 -5.53217,-1.45166c0,0 4.66397,-0.9793 5.93729,-2.30985c1.17501,-1.22782 1.43141,-5.39003 1.43141,-5.39003c0,0 0.53283,4.01218 1.81173,5.23607c1.28767,1.23229 5.88815,2.13262 5.88815,2.13262c0,0 -4.45728,0.36803 -5.6225,1.58561c-1.28018,1.33772 -1.7462,6.11427 -1.7462,6.11427z"/><path d="M292.83538,146.76402c0,0 -0.88383,-4.68837 -2.16771,-5.91703c-1.28275,-1.22757 -5.53217,-1.45166 -5.53217,-1.45166c0,0 4.66397,-0.9793 5.93729,-2.30985c1.17501,-1.22782 1.43141,-5.39003 1.43141,-5.39003c0,0 0.53283,4.01218 1.81173,5.23608c1.28767,1.23229 5.88816,2.13262 5.88816,2.13262c0,0 -4.45728,0.36803 -5.6225,1.58561c-1.28018,1.33772 -1.7462,6.11427 -1.7462,6.11427z"/></g><g fill="#8b71ff" stroke="#8b71ff" stroke-width="0.5"><path d="M114.30483,91.77847c-2.36283,-3.946 -1.07942,-9.06032 2.86658,-11.42315c3.38535,-2.02712 7.63063,-1.37051 10.26064,1.34872c-1.54082,-1.13434 -3.67359,-1.3023 -5.41789,-0.25783c-2.31885,1.38851 -3.07305,4.39393 -1.68454,6.71278c1.38851,2.31885 4.39392,3.07305 6.71278,1.68454c1.75264,-1.04947 2.61144,-3.02261 2.32682,-4.92486c1.18148,3.6134 -0.24189,7.69088 -3.64124,9.72639c-3.946,2.36283 -9.06032,1.07942 -11.42315,-2.86658z"/><path d="M182.015,91.23308c-2.36283,-3.946 -1.07942,-9.06032 2.86658,-11.42315c3.38535,-2.02712 7.63063,-1.37051 10.26064,1.34872c-1.54082,-1.13434 -3.67359,-1.3023 -5.41789,-0.25783c-2.31885,1.38851 -3.07305,4.39392 -1.68454,6.71278c1.38851,2.31885 4.39392,3.07305 6.71278,1.68454c1.75264,-1.04947 2.61144,-3.02261 2.32682,-4.92486c1.18148,3.6134 -0.24189,7.69088 -3.64124,9.72638c-3.946,2.36283 -9.06032,1.07942 -11.42315,-2.86658z"/><path d="M112.56087,40.39412c-2.36283,-3.946 -1.07942,-9.06032 2.86658,-11.42315c3.38535,-2.02712 7.63063,-1.37051 10.26064,1.34872c-1.54082,-1.13434 -3.67359,-1.3023 -5.41789,-0.25783c-2.31885,1.38851 -3.07305,4.39392 -1.68454,6.71278c1.38851,2.31885 4.39392,3.07305 6.71278,1.68454c1.75264,-1.04947 2.61144,-3.02261 2.32682,-4.92486c1.18148,3.6134 -0.24189,7.69088 -3.64124,9.72638c-3.946,2.36283 -9.06032,1.07942 -11.42315,-2.86658z"/><path d="M185.82294,39.19557c-2.36283,-3.946 -1.07942,-9.06032 2.86658,-11.42315c3.38535,-2.02712 7.63063,-1.37051 10.26064,1.34872c-1.54082,-1.13434 -3.67359,-1.3023 -5.41789,-0.25783c-2.31885,1.38851 -3.07305,4.39393 -1.68454,6.71278c1.38851,2.31885 4.39392,3.07305 6.71278,1.68454c1.75264,-1.04947 2.61144,-3.02261 2.32682,-4.92486c1.18148,3.6134 -0.24189,7.69088 -3.64124,9.72639c-3.946,2.36283 -9.06032,1.07942 -11.42315,-2.86658z"/><path d="M152.96711,95.36106c0,0 -0.88383,-4.68837 -2.16772,-5.91703c-1.28275,-1.22757 -5.53217,-1.45166 -5.53217,-1.45166c0,0 4.66397,-0.9793 5.93728,-2.30985c1.17501,-1.22782 1.43141,-5.39003 1.43141,-5.39003c0,0 0.53283,4.01218 1.81172,5.23607c1.28767,1.23229 5.88816,2.13262 5.88816,2.13262c0,0 -4.45728,0.36803 -5.6225,1.58561c-1.28018,1.33772 -1.7462,6.11427 -1.7462,6.11427z"/><path d="M120.74332,67.70939c0,0 -0.88383,-4.68837 -2.16772,-5.91703c-1.28275,-1.22757 -5.53217,-1.45166 -5.53217,-1.45166c0,0 4.66397,-0.9793 5.93729,-2.30985c1.17501,-1.22782 1.43141,-5.39003 1.43141,-5.39003c0,0 0.53283,4.01218 1.81173,5.23607c1.28767,1.23229 5.88815,2.13262 5.88815,2.13262c0,0 -4.45727,0.36803 -5.62249,1.58561c-1.28018,1.33772 -1.7462,6.11427 -1.7462,6.11427z"/><path d="M150.88196,64.99878c-2.36283,-3.946 -1.07942,-9.06032 2.86658,-11.42315c3.38535,-2.02712 7.63063,-1.37051 10.26064,1.34872c-1.54082,-1.13434 -3.67359,-1.30229 -5.41789,-0.25782c-2.31885,1.38851 -3.07305,4.39392 -1.68454,6.71278c1.38851,2.31885 4.39392,3.07305 6.71278,1.68454c1.75264,-1.04947 2.61144,-3.02261 2.32682,-4.92486c1.18148,3.6134 -0.24189,7.69088 -3.64124,9.72638c-3.946,2.36283 -9.06032,1.07942 -11.42315,-2.86658z"/><path d="M156.3407,42.88919c0,0 -0.88383,-4.68837 -2.16772,-5.91703c-1.28275,-1.22757 -5.53217,-1.45166 -5.53217,-1.45166c0,0 4.66397,-0.9793 5.93729,-2.30985c1.17501,-1.22782 1.43141,-5.39003 1.43141,-5.39003c0,0 0.53283,4.01218 1.81173,5.23607c1.28767,1.23229 5.88815,2.13262 5.88815,2.13262c0,0 -4.45728,0.36803 -5.6225,1.58561c-1.28018,1.33772 -1.7462,6.11427 -1.7462,6.11427z"/><path d="M189.32544,68.03598c0,0 -0.88383,-4.68837 -2.16771,-5.91703c-1.28275,-1.22757 -5.53217,-1.45166 -5.53217,-1.45166c0,0 4.66397,-0.9793 5.93729,-2.30985c1.17501,-1.22782 1.43141,-5.39003 1.43141,-5.39003c0,0 0.53283,4.01218 1.81173,5.23608c1.28767,1.23229 5.88816,2.13262 5.88816,2.13262c0,0 -4.45728,0.36803 -5.6225,1.58561c-1.28018,1.33772 -1.7462,6.11427 -1.7462,6.11427z"/></g><g fill="#8b71ff" stroke="#8b71ff" stroke-width="0.5"><path d="M251.01044,91.77644c-2.36283,-3.946 -1.07942,-9.06032 2.86658,-11.42315c3.38535,-2.02712 7.63063,-1.37051 10.26064,1.34872c-1.54082,-1.13434 -3.67359,-1.3023 -5.41789,-0.25783c-2.31885,1.38851 -3.07305,4.39392 -1.68454,6.71278c1.38851,2.31885 4.39392,3.07305 6.71278,1.68454c1.75264,-1.04947 2.61144,-3.02261 2.32682,-4.92486c1.18148,3.6134 -0.24189,7.69088 -3.64124,9.72638c-3.946,2.36283 -9.06032,1.07942 -11.42315,-2.86658z"/><path d="M250.03491,36.01842c-2.36283,-3.946 -1.07942,-9.06032 2.86658,-11.42315c3.38535,-2.02712 7.63063,-1.37051 10.26064,1.34872c-1.54082,-1.13434 -3.67359,-1.3023 -5.41789,-0.25783c-2.31885,1.38851 -3.07305,4.39393 -1.68454,6.71278c1.38851,2.31885 4.39392,3.07305 6.71278,1.68454c1.75264,-1.04947 2.61144,-3.02261 2.32682,-4.92486c1.18148,3.6134 -0.24189,7.69088 -3.64124,9.72639c-3.946,2.36283 -9.06032,1.07942 -11.42315,-2.86658z"/><path d="M292.91765,95.10716c0,0 -0.88383,-4.68837 -2.16772,-5.91703c-1.28275,-1.22757 -5.53217,-1.45166 -5.53217,-1.45166c0,0 4.66397,-0.9793 5.93728,-2.30985c1.17501,-1.22782 1.43141,-5.39003 1.43141,-5.39003c0,0 0.53283,4.01218 1.81172,5.23607c1.28767,1.23229 5.88816,2.13262 5.88816,2.13262c0,0 -4.45728,0.36803 -5.6225,1.58561c-1.28018,1.33772 -1.7462,6.11427 -1.7462,6.11427z"/><path d="M222.69168,95.89067c0,0 -0.88383,-4.68837 -2.16772,-5.91703c-1.28275,-1.22757 -5.53217,-1.45166 -5.53217,-1.45166c0,0 4.66397,-0.9793 5.93729,-2.30985c1.17501,-1.22782 1.43141,-5.39003 1.43141,-5.39003c0,0 0.53283,4.01218 1.81173,5.23607c1.28767,1.23229 5.88815,2.13262 5.88815,2.13262c0,0 -4.45727,0.36803 -5.62249,1.58561c-1.28018,1.33772 -1.7462,6.11427 -1.7462,6.11427z"/><path d="M216.15693,64.74487c-2.36283,-3.946 -1.07942,-9.06032 2.86658,-11.42315c3.38535,-2.02712 7.63063,-1.37051 10.26064,1.34872c-1.54082,-1.13434 -3.67359,-1.30229 -5.41789,-0.25782c-2.31885,1.38851 -3.07305,4.39392 -1.68454,6.71278c1.38851,2.31885 4.39392,3.07305 6.71278,1.68454c1.75264,-1.04947 2.61144,-3.02261 2.32682,-4.92486c1.18148,3.6134 -0.24189,7.69088 -3.64124,9.72638c-3.946,2.36283 -9.06032,1.07942 -11.42315,-2.86658z"/><path d="M257.2261,66.02123c0,0 -0.88383,-4.68837 -2.16772,-5.91703c-1.28275,-1.22757 -5.53217,-1.45166 -5.53217,-1.45166c0,0 4.66397,-0.9793 5.93729,-2.30985c1.17501,-1.22782 1.43141,-5.39003 1.43141,-5.39003c0,0 0.53283,4.01218 1.81173,5.23607c1.28767,1.23229 5.88815,2.13262 5.88815,2.13262c0,0 -4.45728,0.36803 -5.6225,1.58561c-1.28018,1.33772 -1.7462,6.11427 -1.7462,6.11427z"/><path d="M293.13406,38.28389c0,0 -0.88383,-4.68837 -2.16771,-5.91703c-1.28275,-1.22757 -5.53217,-1.45166 -5.53217,-1.45166c0,0 4.66397,-0.9793 5.93729,-2.30985c1.17501,-1.22782 1.43141,-5.39003 1.43141,-5.39003c0,0 0.53283,4.01218 1.81173,5.23608c1.28767,1.23229 5.88816,2.13262 5.88816,2.13262c0,0 -4.45728,0.36803 -5.6225,1.58561c-1.28018,1.33772 -1.7462,6.11427 -1.7462,6.11427z"/><path d="M285.11383,63.65635c-2.36283,-3.946 -1.07942,-9.06032 2.86658,-11.42315c3.38535,-2.02712 7.63063,-1.37051 10.26064,1.34872c-1.54082,-1.13434 -3.67359,-1.3023 -5.41789,-0.25783c-2.31885,1.38851 -3.07305,4.39393 -1.68454,6.71278c1.38851,2.31885 4.39392,3.07305 6.71278,1.68454c1.75264,-1.04947 2.61144,-3.02261 2.32682,-4.92486c1.18148,3.6134 -0.24189,7.69088 -3.64124,9.72639c-3.946,2.36283 -9.06032,1.07942 -11.42315,-2.86658z"/><path d="M223.47593,36.7888c0,0 -0.88383,-4.68837 -2.16772,-5.91703c-1.28275,-1.22757 -5.53217,-1.45166 -5.53217,-1.45166c0,0 4.66397,-0.9793 5.93729,-2.30985c1.17501,-1.22782 1.43141,-5.39003 1.43141,-5.39003c0,0 0.53283,4.01218 1.81173,5.23607c1.28767,1.23229 5.88815,2.13262 5.88815,2.13262c0,0 -4.45728,0.36803 -5.6225,1.58561c-1.28018,1.33772 -1.7462,6.11427 -1.7462,6.11427z"/></g><path d="M457.26939,256.77175c-2.36283,-3.946 -1.07942,-9.06032 2.86658,-11.42315c3.38535,-2.02712 7.63063,-1.37051 10.26064,1.34872c-1.54082,-1.13434 -3.67359,-1.3023 -5.41789,-0.25783c-2.31885,1.38851 -3.07305,4.39392 -1.68454,6.71278c1.38851,2.31885 4.39392,3.07305 6.71278,1.68454c1.75264,-1.04947 2.61144,-3.02261 2.32682,-4.92486c1.18148,3.6134 -0.24189,7.69088 -3.64124,9.72638c-3.946,2.36283 -9.06032,1.07942 -11.42315,-2.86658z" fill="#8b71ff" stroke="#8b71ff" stroke-width="0.5"/><path d="M456.29384,201.01374c-2.36283,-3.946 -1.07942,-9.06032 2.86658,-11.42315c3.38535,-2.02712 7.63063,-1.37051 10.26064,1.34872c-1.54082,-1.13434 -3.67359,-1.3023 -5.41789,-0.25783c-2.31885,1.38851 -3.07305,4.39393 -1.68454,6.71278c1.38851,2.31885 4.39392,3.07305 6.71278,1.68454c1.75264,-1.04947 2.61144,-3.02261 2.32682,-4.92486c1.18148,3.6134 -0.24189,7.69088 -3.64124,9.72639c-3.946,2.36283 -9.06032,1.07942 -11.42315,-2.86658z" fill="#8b71ff" stroke="#8b71ff" stroke-width="0.5"/><path d="M428.95063,260.88599c0,0 -0.88383,-4.68837 -2.16772,-5.91703c-1.28275,-1.22757 -5.53217,-1.45166 -5.53217,-1.45166c0,0 4.66397,-0.9793 5.93729,-2.30985c1.17501,-1.22782 1.43141,-5.39003 1.43141,-5.39003c0,0 0.53283,4.01218 1.81173,5.23607c1.28767,1.23229 5.88815,2.13262 5.88815,2.13262c0,0 -4.45727,0.36803 -5.62249,1.58561c-1.28018,1.33772 -1.7462,6.11427 -1.7462,6.11427z" fill="#8b71ff" stroke="#8b71ff" stroke-width="0.5"/><path d="M422.41587,229.7402c-2.36283,-3.946 -1.07942,-9.06032 2.86658,-11.42315c3.38535,-2.02712 7.63063,-1.37051 10.26064,1.34872c-1.54082,-1.13434 -3.67359,-1.30229 -5.41789,-0.25782c-2.31885,1.38851 -3.07305,4.39392 -1.68454,6.71278c1.38851,2.31885 4.39392,3.07305 6.71278,1.68454c1.75264,-1.04947 2.61144,-3.02261 2.32682,-4.92486c1.18148,3.6134 -0.24189,7.69088 -3.64124,9.72638c-3.946,2.36283 -9.06032,1.07942 -11.42315,-2.86658z" fill="#8b71ff" stroke="#8b71ff" stroke-width="0.5"/><path d="M463.48503,231.01653c0,0 -0.88383,-4.68837 -2.16772,-5.91703c-1.28275,-1.22757 -5.53217,-1.45166 -5.53217,-1.45166c0,0 4.66397,-0.9793 5.93729,-2.30985c1.17501,-1.22782 1.43141,-5.39003 1.43141,-5.39003c0,0 0.53283,4.01218 1.81173,5.23607c1.28767,1.23229 5.88815,2.13262 5.88815,2.13262c0,0 -4.45728,0.36803 -5.6225,1.58561c-1.28018,1.33772 -1.7462,6.11427 -1.7462,6.11427z" fill="#8b71ff" stroke="#8b71ff" stroke-width="0.5"/><path d="M429.73486,201.78413c0,0 -0.88383,-4.68837 -2.16772,-5.91703c-1.28275,-1.22757 -5.53217,-1.45166 -5.53217,-1.45166c0,0 4.66397,-0.9793 5.93729,-2.30985c1.17501,-1.22782 1.43141,-5.39003 1.43141,-5.39003c0,0 0.53283,4.01218 1.81173,5.23607c1.28767,1.23229 5.88815,2.13262 5.88815,2.13262c0,0 -4.45728,0.36803 -5.6225,1.58561c-1.28018,1.33772 -1.7462,6.11427 -1.7462,6.11427z" fill="#8b71ff" stroke="#8b71ff" stroke-width="0.5"/><g fill="#8b71ff" stroke="#8b71ff" stroke-width="0.5"><path d="M355.11948,173.77494c-2.36283,-3.946 -1.07942,-9.06032 2.86658,-11.42315c3.38535,-2.02712 7.63063,-1.37051 10.26064,1.34872c-1.54082,-1.13434 -3.67359,-1.3023 -5.41789,-0.25783c-2.31885,1.38851 -3.07305,4.39392 -1.68454,6.71278c1.38851,2.31885 4.39392,3.07305 6.71278,1.68454c1.75264,-1.04947 2.61144,-3.02261 2.32682,-4.92486c1.18148,3.6134 -0.24189,7.69088 -3.64124,9.72638c-3.946,2.36283 -9.06032,1.07942 -11.42315,-2.86658z"/><path d="M354.14394,118.01693c-2.36283,-3.946 -1.07942,-9.06032 2.86658,-11.42315c3.38535,-2.02712 7.63063,-1.37051 10.26064,1.34872c-1.54082,-1.13434 -3.67359,-1.3023 -5.41789,-0.25783c-2.31885,1.38851 -3.07305,4.39393 -1.68454,6.71278c1.38851,2.31885 4.39392,3.07305 6.71278,1.68454c1.75264,-1.04947 2.61144,-3.02261 2.32682,-4.92486c1.18148,3.6134 -0.24189,7.69088 -3.64124,9.72639c-3.946,2.36283 -9.06032,1.07942 -11.42315,-2.86658z"/><path d="M397.02669,177.10569c0,0 -0.88383,-4.68837 -2.16772,-5.91703c-1.28275,-1.22757 -5.53217,-1.45166 -5.53217,-1.45166c0,0 4.66397,-0.9793 5.93728,-2.30985c1.17501,-1.22782 1.43141,-5.39003 1.43141,-5.39003c0,0 0.53283,4.01218 1.81172,5.23607c1.28767,1.23229 5.88816,2.13262 5.88816,2.13262c0,0 -4.45728,0.36803 -5.6225,1.58561c-1.28018,1.33772 -1.7462,6.11427 -1.7462,6.11427z"/><path d="M326.80071,177.8892c0,0 -0.88383,-4.68837 -2.16772,-5.91703c-1.28275,-1.22757 -5.53217,-1.45166 -5.53217,-1.45166c0,0 4.66397,-0.9793 5.93729,-2.30985c1.17501,-1.22782 1.43141,-5.39003 1.43141,-5.39003c0,0 0.53283,4.01218 1.81173,5.23607c1.28767,1.23229 5.88815,2.13262 5.88815,2.13262c0,0 -4.45727,0.36803 -5.62249,1.58561c-1.28018,1.33772 -1.7462,6.11427 -1.7462,6.11427z"/><path d="M320.26595,146.74338c-2.36283,-3.946 -1.07942,-9.06032 2.86658,-11.42315c3.38535,-2.02712 7.63063,-1.37051 10.26064,1.34872c-1.54082,-1.13434 -3.67359,-1.30229 -5.41789,-0.25782c-2.31885,1.38851 -3.07305,4.39392 -1.68454,6.71278c1.38851,2.31885 4.39392,3.07305 6.71278,1.68454c1.75264,-1.04947 2.61144,-3.02261 2.32682,-4.92486c1.18148,3.6134 -0.24189,7.69088 -3.64124,9.72638c-3.946,2.36283 -9.06032,1.07942 -11.42315,-2.86658z"/><path d="M361.33513,148.01975c0,0 -0.88383,-4.68837 -2.16772,-5.91703c-1.28275,-1.22757 -5.53217,-1.45166 -5.53217,-1.45166c0,0 4.66397,-0.9793 5.93729,-2.30985c1.17501,-1.22782 1.43141,-5.39003 1.43141,-5.39003c0,0 0.53283,4.01218 1.81173,5.23607c1.28767,1.23229 5.88815,2.13262 5.88815,2.13262c0,0 -4.45728,0.36803 -5.6225,1.58561c-1.28018,1.33772 -1.7462,6.11427 -1.7462,6.11427z"/><path d="M397.24311,120.2824c0,0 -0.88383,-4.68837 -2.16771,-5.91703c-1.28275,-1.22757 -5.53217,-1.45166 -5.53217,-1.45166c0,0 4.66397,-0.9793 5.93729,-2.30985c1.17501,-1.22782 1.43141,-5.39003 1.43141,-5.39003c0,0 0.53283,4.01218 1.81173,5.23608c1.28767,1.23229 5.88816,2.13262 5.88816,2.13262c0,0 -4.45728,0.36803 -5.6225,1.58561c-1.28018,1.33772 -1.7462,6.11427 -1.7462,6.11427z"/><path d="M389.22285,145.65487c-2.36283,-3.946 -1.07942,-9.06032 2.86658,-11.42315c3.38535,-2.02712 7.63063,-1.37051 10.26064,1.34872c-1.54082,-1.13434 -3.67359,-1.3023 -5.41789,-0.25783c-2.31885,1.38851 -3.07305,4.39393 -1.68454,6.71278c1.38851,2.31885 4.39392,3.07305 6.71278,1.68454c1.75264,-1.04947 2.61144,-3.02261 2.32682,-4.92486c1.18148,3.6134 -0.24189,7.69088 -3.64124,9.72639c-3.946,2.36283 -9.06032,1.07942 -11.42315,-2.86658z"/><path d="M327.58496,118.78732c0,0 -0.88383,-4.68837 -2.16772,-5.91703c-1.28275,-1.22757 -5.53217,-1.45166 -5.53217,-1.45166c0,0 4.66397,-0.9793 5.93729,-2.30985c1.17501,-1.22782 1.43141,-5.39003 1.43141,-5.39003c0,0 0.53283,4.01218 1.81173,5.23607c1.28767,1.23229 5.88815,2.13262 5.88815,2.13262c0,0 -4.45728,0.36803 -5.6225,1.58561c-1.28018,1.33772 -1.7462,6.11427 -1.7462,6.11427z"/></g><g fill="#8b71ff" stroke="#8b71ff" stroke-width="0.5"><path d="M321.38504,85.49646c-2.36283,-3.946 -1.07942,-9.06032 2.86658,-11.42315c3.38535,-2.02712 7.63063,-1.37051 10.26064,1.34872c-1.54082,-1.13434 -3.67359,-1.3023 -5.41789,-0.25783c-2.31885,1.38851 -3.07305,4.39393 -1.68454,6.71278c1.38851,2.31885 4.39392,3.07305 6.71278,1.68454c1.75264,-1.04947 2.61144,-3.02261 2.32682,-4.92486c1.18148,3.6134 -0.24189,7.69088 -3.64124,9.72639c-3.946,2.36283 -9.06032,1.07942 -11.42315,-2.86658z"/><path d="M389.09521,84.95107c-2.36283,-3.946 -1.07942,-9.06032 2.86658,-11.42315c3.38535,-2.02712 7.63063,-1.37051 10.26064,1.34872c-1.54082,-1.13434 -3.67359,-1.3023 -5.41789,-0.25783c-2.31885,1.38851 -3.07305,4.39392 -1.68454,6.71278c1.38851,2.31885 4.39392,3.07305 6.71278,1.68454c1.75264,-1.04947 2.61144,-3.02261 2.32682,-4.92486c1.18148,3.6134 -0.24189,7.69088 -3.64124,9.72638c-3.946,2.36283 -9.06032,1.07942 -11.42315,-2.86658z"/><path d="M319.64108,34.11211c-2.36283,-3.946 -1.07942,-9.06032 2.86658,-11.42315c3.38535,-2.02712 7.63063,-1.37051 10.26064,1.34872c-1.54082,-1.13434 -3.67359,-1.3023 -5.41789,-0.25783c-2.31885,1.38851 -3.07305,4.39392 -1.68454,6.71278c1.38851,2.31885 4.39392,3.07305 6.71278,1.68454c1.75264,-1.04947 2.61144,-3.02261 2.32682,-4.92486c1.18148,3.6134 -0.24189,7.69088 -3.64124,9.72638c-3.946,2.36283 -9.06032,1.07942 -11.42315,-2.86658z"/><path d="M392.90316,32.91356c-2.36283,-3.946 -1.07942,-9.06032 2.86658,-11.42315c3.38535,-2.02712 7.63063,-1.37051 10.26064,1.34872c-1.54082,-1.13434 -3.67359,-1.3023 -5.41789,-0.25783c-2.31885,1.38851 -3.07305,4.39393 -1.68454,6.71278c1.38851,2.31885 4.39392,3.07305 6.71278,1.68454c1.75264,-1.04947 2.61144,-3.02261 2.32682,-4.92486c1.18148,3.6134 -0.24189,7.69088 -3.64124,9.72639c-3.946,2.36283 -9.06032,1.07942 -11.42315,-2.86658z"/><path d="M360.04735,89.07905c0,0 -0.88383,-4.68837 -2.16772,-5.91703c-1.28275,-1.22757 -5.53217,-1.45166 -5.53217,-1.45166c0,0 4.66397,-0.9793 5.93728,-2.30985c1.17501,-1.22782 1.43141,-5.39003 1.43141,-5.39003c0,0 0.53283,4.01218 1.81172,5.23607c1.28767,1.23229 5.88816,2.13262 5.88816,2.13262c0,0 -4.45728,0.36803 -5.6225,1.58561c-1.28018,1.33772 -1.7462,6.11427 -1.7462,6.11427z"/><path d="M327.82353,61.42738c0,0 -0.88383,-4.68837 -2.16772,-5.91703c-1.28275,-1.22757 -5.53217,-1.45166 -5.53217,-1.45166c0,0 4.66397,-0.9793 5.93729,-2.30985c1.17501,-1.22782 1.43141,-5.39003 1.43141,-5.39003c0,0 0.53283,4.01218 1.81173,5.23607c1.28767,1.23229 5.88815,2.13262 5.88815,2.13262c0,0 -4.45727,0.36803 -5.62249,1.58561c-1.28018,1.33772 -1.7462,6.11427 -1.7462,6.11427z"/><path d="M357.96219,58.71677c-2.36283,-3.946 -1.07942,-9.06032 2.86658,-11.42315c3.38535,-2.02712 7.63063,-1.37051 10.26064,1.34872c-1.54082,-1.13434 -3.67359,-1.30229 -5.41789,-0.25782c-2.31885,1.38851 -3.07305,4.39392 -1.68454,6.71278c1.38851,2.31885 4.39392,3.07305 6.71278,1.68454c1.75264,-1.04947 2.61144,-3.02261 2.32682,-4.92486c1.18148,3.6134 -0.24189,7.69088 -3.64124,9.72638c-3.946,2.36283 -9.06032,1.07942 -11.42315,-2.86658z"/><path d="M363.42093,36.60718c0,0 -0.88383,-4.68837 -2.16772,-5.91703c-1.28275,-1.22757 -5.53217,-1.45166 -5.53217,-1.45166c0,0 4.66397,-0.9793 5.93729,-2.30985c1.17501,-1.22782 1.43141,-5.39003 1.43141,-5.39003c0,0 0.53283,4.01218 1.81173,5.23607c1.28767,1.23229 5.88815,2.13262 5.88815,2.13262c0,0 -4.45728,0.36803 -5.6225,1.58561c-1.28018,1.33772 -1.7462,6.11427 -1.7462,6.11427z"/><path d="M396.40567,61.75398c0,0 -0.88383,-4.68837 -2.16771,-5.91703c-1.28275,-1.22757 -5.53217,-1.45166 -5.53217,-1.45166c0,0 4.66397,-0.9793 5.93729,-2.30985c1.17501,-1.22782 1.43141,-5.39003 1.43141,-5.39003c0,0 0.53283,4.01218 1.81173,5.23608c1.28767,1.23229 5.88816,2.13262 5.88816,2.13262c0,0 -4.45728,0.36803 -5.6225,1.58561c-1.28018,1.33772 -1.7462,6.11427 -1.7462,6.11427z"/></g><path d="M422.05652,171.08332c-2.36283,-3.946 -1.07942,-9.06032 2.86658,-11.42315c3.38535,-2.02712 7.63063,-1.37051 10.26064,1.34872c-1.54082,-1.13434 -3.67359,-1.3023 -5.41789,-0.25783c-2.31885,1.38851 -3.07305,4.39393 -1.68454,6.71278c1.38851,2.31885 4.39392,3.07305 6.71278,1.68454c1.75264,-1.04947 2.61144,-3.02261 2.32682,-4.92486c1.18148,3.6134 -0.24189,7.69088 -3.64124,9.72639c-3.946,2.36283 -9.06032,1.07942 -11.42315,-2.86658z" fill="#8b71ff" stroke="#8b71ff" stroke-width="0.5"/><path d="M420.31257,119.69895c-2.36283,-3.946 -1.07942,-9.06032 2.86658,-11.42315c3.38535,-2.02712 7.63063,-1.37051 10.26064,1.34872c-1.54082,-1.13434 -3.67359,-1.3023 -5.41789,-0.25783c-2.31885,1.38851 -3.07305,4.39392 -1.68454,6.71278c1.38851,2.31885 4.39392,3.07305 6.71278,1.68454c1.75264,-1.04947 2.61144,-3.02261 2.32682,-4.92486c1.18148,3.6134 -0.24189,7.69088 -3.64124,9.72638c-3.946,2.36283 -9.06032,1.07942 -11.42315,-2.86658z" fill="#8b71ff" stroke="#8b71ff" stroke-width="0.5"/><path d="M460.71882,174.66588c0,0 -0.88383,-4.68837 -2.16772,-5.91703c-1.28275,-1.22757 -5.53217,-1.45166 -5.53217,-1.45166c0,0 4.66397,-0.9793 5.93728,-2.30985c1.17501,-1.22782 1.43141,-5.39003 1.43141,-5.39003c0,0 0.53283,4.01218 1.81172,5.23607c1.28767,1.23229 5.88816,2.13262 5.88816,2.13262c0,0 -4.45728,0.36803 -5.6225,1.58561c-1.28018,1.33772 -1.7462,6.11427 -1.7462,6.11427z" fill="#8b71ff" stroke="#8b71ff" stroke-width="0.5"/><path d="M428.495,147.01422c0,0 -0.88383,-4.68837 -2.16772,-5.91703c-1.28275,-1.22757 -5.53217,-1.45166 -5.53217,-1.45166c0,0 4.66397,-0.9793 5.93729,-2.30985c1.17501,-1.22782 1.43141,-5.39003 1.43141,-5.39003c0,0 0.53283,4.01218 1.81173,5.23607c1.28767,1.23229 5.88815,2.13262 5.88815,2.13262c0,0 -4.45727,0.36803 -5.62249,1.58561c-1.28018,1.33772 -1.7462,6.11427 -1.7462,6.11427z" fill="#8b71ff" stroke="#8b71ff" stroke-width="0.5"/><path d="M458.63367,144.3036c-2.36283,-3.946 -1.07942,-9.06032 2.86658,-11.42315c3.38535,-2.02712 7.63063,-1.37051 10.26064,1.34872c-1.54082,-1.13434 -3.67359,-1.30229 -5.41789,-0.25782c-2.31885,1.38851 -3.07305,4.39392 -1.68454,6.71278c1.38851,2.31885 4.39392,3.07305 6.71278,1.68454c1.75264,-1.04947 2.61144,-3.02261 2.32682,-4.92486c1.18148,3.6134 -0.24189,7.69088 -3.64124,9.72638c-3.946,2.36283 -9.06032,1.07942 -11.42315,-2.86658z" fill="#8b71ff" stroke="#8b71ff" stroke-width="0.5"/><path d="M464.09241,122.19402c0,0 -0.88383,-4.68837 -2.16772,-5.91703c-1.28275,-1.22757 -5.53217,-1.45166 -5.53217,-1.45166c0,0 4.66397,-0.9793 5.93729,-2.30985c1.17501,-1.22782 1.43141,-5.39003 1.43141,-5.39003c0,0 0.53283,4.01218 1.81173,5.23607c1.28767,1.23229 5.88815,2.13262 5.88815,2.13262c0,0 -4.45728,0.36803 -5.6225,1.58561c-1.28018,1.33772 -1.7462,6.11427 -1.7462,6.11427z" fill="#8b71ff" stroke="#8b71ff" stroke-width="0.5"/><path d="M457.79609,88.11267c-2.36283,-3.946 -1.07942,-9.06032 2.86658,-11.42315c3.38535,-2.02712 7.63063,-1.37051 10.26064,1.34872c-1.54082,-1.13434 -3.67359,-1.3023 -5.41789,-0.25783c-2.31885,1.38851 -3.07305,4.39392 -1.68454,6.71278c1.38851,2.31885 4.39392,3.07305 6.71278,1.68454c1.75264,-1.04947 2.61144,-3.02261 2.32682,-4.92486c1.18148,3.6134 -0.24189,7.69088 -3.64124,9.72638c-3.946,2.36283 -9.06032,1.07942 -11.42315,-2.86658z" fill="#8b71ff" stroke="#8b71ff" stroke-width="0.5"/><path d="M456.82055,32.35466c-2.36283,-3.946 -1.07942,-9.06032 2.86658,-11.42315c3.38535,-2.02712 7.63063,-1.37051 10.26064,1.34872c-1.54082,-1.13434 -3.67359,-1.3023 -5.41789,-0.25783c-2.31885,1.38851 -3.07305,4.39393 -1.68454,6.71278c1.38851,2.31885 4.39392,3.07305 6.71278,1.68454c1.75264,-1.04947 2.61144,-3.02261 2.32682,-4.92486c1.18148,3.6134 -0.24189,7.69088 -3.64124,9.72639c-3.946,2.36283 -9.06032,1.07942 -11.42315,-2.86658z" fill="#8b71ff" stroke="#8b71ff" stroke-width="0.5"/><path d="M429.47734,92.22693c0,0 -0.88383,-4.68837 -2.16772,-5.91703c-1.28275,-1.22757 -5.53217,-1.45166 -5.53217,-1.45166c0,0 4.66397,-0.9793 5.93729,-2.30985c1.17501,-1.22782 1.43141,-5.39003 1.43141,-5.39003c0,0 0.53283,4.01218 1.81173,5.23607c1.28767,1.23229 5.88815,2.13262 5.88815,2.13262c0,0 -4.45727,0.36803 -5.62249,1.58561c-1.28018,1.33772 -1.7462,6.11427 -1.7462,6.11427z" fill="#8b71ff" stroke="#8b71ff" stroke-width="0.5"/><path d="M422.94258,61.08112c-2.36283,-3.946 -1.07942,-9.06032 2.86658,-11.42315c3.38535,-2.02712 7.63063,-1.37051 10.26064,1.34872c-1.54082,-1.13434 -3.67359,-1.30229 -5.41789,-0.25782c-2.31885,1.38851 -3.07305,4.39392 -1.68454,6.71278c1.38851,2.31885 4.39392,3.07305 6.71278,1.68454c1.75264,-1.04947 2.61144,-3.02261 2.32682,-4.92486c1.18148,3.6134 -0.24189,7.69088 -3.64124,9.72638c-3.946,2.36283 -9.06032,1.07942 -11.42315,-2.86658z" fill="#8b71ff" stroke="#8b71ff" stroke-width="0.5"/><path d="M464.01174,62.35747c0,0 -0.88383,-4.68837 -2.16772,-5.91703c-1.28275,-1.22757 -5.53217,-1.45166 -5.53217,-1.45166c0,0 4.66397,-0.9793 5.93729,-2.30985c1.17501,-1.22782 1.43141,-5.39003 1.43141,-5.39003c0,0 0.53283,4.01218 1.81173,5.23607c1.28767,1.23229 5.88815,2.13262 5.88815,2.13262c0,0 -4.45728,0.36803 -5.6225,1.58561c-1.28018,1.33772 -1.7462,6.11427 -1.7462,6.11427z" fill="#8b71ff" stroke="#8b71ff" stroke-width="0.5"/><path d="M430.26157,33.12504c0,0 -0.88383,-4.68837 -2.16772,-5.91703c-1.28275,-1.22757 -5.53217,-1.45166 -5.53217,-1.45166c0,0 4.66397,-0.9793 5.93729,-2.30985c1.17501,-1.22782 1.43141,-5.39003 1.43141,-5.39003c0,0 0.53283,4.01218 1.81173,5.23607c1.28767,1.23229 5.88815,2.13262 5.88815,2.13262c0,0 -4.45728,0.36803 -5.6225,1.58561c-1.28018,1.33772 -1.7462,6.11427 -1.7462,6.11427z" fill="#8b71ff" stroke="#8b71ff" stroke-width="0.5"/></g></g></svg>