<svg version="1.1" xmlns="http://www.w3.org/2000/svg" xmlns:xlink="http://www.w3.org/1999/xlink" width="19.98352" height="19.43397" viewBox="0,0,19.98352,19.43397"><g transform="translate(-230.00824,-170.28302)"><g data-paper-data="{&quot;isPaintingLayer&quot;:true}" fill-rule="nonzero" stroke="none" stroke-width="0" stroke-linecap="butt" stroke-linejoin="miter" stroke-miterlimit="10" stroke-dasharray="" stroke-dashoffset="0" style="mix-blend-mode: normal"><path d="M240.00824,189.717c-5.52285,0 -10,-4.35044 -10,-9.71699c0,-5.36654 4.47715,-9.71698 10,-9.71698c5.32851,0 9.68361,4.04966 9.98352,9.15437c-0.32659,-2.9321 -2.81333,-5.21198 -5.83258,-5.21198c-3.24132,0 -5.86893,2.62761 -5.86893,5.86893c0,3.24132 2.62761,5.86894 5.86893,5.86894c2.91485,0 5.33338,-2.12495 5.79102,-4.91024c-0.54023,4.87125 -4.78528,8.66395 -9.94196,8.66395z" fill="#00a3ff"/><path d="M240.9939,180.68721l0.04885,-1.43172c0,0 1.04501,0.15262 1.0908,0.01806c0.04561,-0.13403 0.15467,-0.31586 0.22066,-0.43897c0.07241,-0.1351 -0.96256,-0.90999 -0.96256,-0.90999l1.0353,-0.95903c0,0 0.59204,1.05888 0.65804,1.0067c0.19096,-0.15097 0.29823,-0.17003 0.52732,-0.26274c0.29928,-0.1211 0.28326,-1.13743 0.28326,-1.13743l1.41819,0.03322c0,0 -0.02624,1.01032 0.10203,1.05403c0.25303,0.08623 0.48841,0.10508 0.69929,0.26074c0.06022,0.04444 0.73503,-0.87087 0.73503,-0.87087l0.82717,1.02702c0,0 -0.9213,0.61878 -0.82806,0.78868c0.08701,0.15855 0.15788,0.3272 0.2104,0.50377c0.0324,0.10893 1.23156,0.01525 1.23156,0.01525l0.03605,1.25052c0,0 -1.18835,-0.09249 -1.24042,0.11208c-0.06191,0.24322 -0.05278,0.36714 -0.17814,0.5773c-0.02788,0.04674 1.02413,0.65097 1.02413,0.65097l-0.94731,1.32802c0,0 -1.02354,-1.11218 -1.12683,-1.05337c-0.17694,0.10074 -0.26142,0.1812 -0.4613,0.23821c-0.11386,0.03247 0.00427,1.11295 0.00427,1.11295l-1.50606,0.04105c0,0 0.08086,-1.1093 -0.19368,-1.20863c-0.20186,-0.07303 -0.23377,-0.0122 -0.40868,-0.1305c-0.12702,-0.08591 -0.93588,0.81856 -0.93588,0.81856l-0.84141,-1.05527c0,0 0.84602,-0.6266 0.80072,-0.69525c-0.13152,-0.19932 -0.13067,-0.25965 -0.20332,-0.49238c-0.07605,-0.24359 -1.11942,-0.19097 -1.11942,-0.19097zM244.74096,180.95584c0.41421,0 0.75,-0.33579 0.75,-0.75c0,-0.41421 -0.33579,-0.75 -0.75,-0.75c-0.41421,0 -0.75,0.33579 -0.75,0.75c0,0.41421 0.33579,0.75 0.75,0.75z" fill="#ffc600"/></g></g></svg>