<svg version="1.1" xmlns="http://www.w3.org/2000/svg" xmlns:xlink="http://www.w3.org/1999/xlink" width="119.4574" height="141.62198" viewBox="0,0,119.4574,141.62198"><g transform="translate(-189.74691,-114.56971)"><g data-paper-data="{&quot;isPaintingLayer&quot;:true}" fill-rule="nonzero" stroke-linejoin="miter" stroke-miterlimit="10" stroke-dasharray="" stroke-dashoffset="0" style="mix-blend-mode: normal"><path d="M217.83796,248.18127c0,-20.6544 0,-106.0357 0,-116.04086c0,-2.52654 1.76013,-4.59343 5.04862,-4.59343c9.7558,0 60.18863,0 78.06381,0c4.05966,0 6.50392,2.95594 6.50392,6.32819c0,10.97661 0,91.20752 0,112.81918c0,4.83749 -2.60769,7.74735 -5.55255,7.74735c-9.23248,0 -58.16283,0 -76.8247,0c-4.49924,0 -7.2391,-2.31816 -7.2391,-6.26042z" fill="#ffeeee" stroke="#000000" stroke-width="3.5" stroke-linecap="butt"/><path d="M218.17591,210.42508c0,-14.19545 0,-72.8767 0,-79.7531c0,-1.73645 1.7522,-3.15699 5.02587,-3.15699c9.71183,0 59.91736,0 77.71199,0c4.04137,0 6.47461,2.03157 6.47461,4.34927c0,7.54405 0,62.68552 0,77.53888c0,3.32473 -2.59594,5.32464 -5.52753,5.32464c-9.19087,0 -57.90071,0 -76.47847,0c-4.47896,0 -7.20647,-1.59323 -7.20647,-4.30269z" fill="#ffd0d0" stroke="#000000" stroke-width="3.5" stroke-linecap="butt"/><path d="M217.79763,133.19145c0,-3.12842 2.53609,-5.66451 5.66451,-5.66451c3.12842,0 5.66451,2.53609 5.66451,5.66451c0,3.12842 -2.53609,5.66451 -5.66451,5.66451c-3.12842,0 -5.66451,-2.53609 -5.66451,-5.66451z" fill="#295c25" stroke="#000000" stroke-width="3.5" stroke-linecap="butt"/><path d="M296.08225,248.61497c0,-3.12842 2.53609,-5.66451 5.66451,-5.66451c3.12842,0 5.66451,2.53609 5.66451,5.66451c0,3.12842 -2.53609,5.66451 -5.66451,5.66451c-3.12842,0 -5.66451,-2.53609 -5.66451,-5.66451z" fill="#295c25" stroke="#000000" stroke-width="3.5" stroke-linecap="butt"/><path d="M200.04933,116.09388c0,0 1.19119,3.56829 -1.81717,4.0579c-2.24778,0.15497 -2.64539,-0.81645 -2.75082,-2.51299c-0.10521,-1.69307 3.10136,-4.30549 2.48376,0.13697" fill="none" stroke="#94a1ff" stroke-width="1.5" stroke-linecap="round"/><text transform="translate(234.20927,233.03839) scale(0.33943,0.38589)" font-size="40" xml:space="preserve" fill="#272727" fill-rule="nonzero" stroke="none" stroke-width="1" stroke-linecap="butt" stroke-linejoin="miter" stroke-miterlimit="10" stroke-dasharray="" stroke-dashoffset="0" font-family="Marker" font-weight="normal" text-anchor="start" style="mix-blend-mode: normal"><tspan x="0" dy="0">bad omen</tspan></text><text transform="translate(224.77247,239.52231) scale(0.11138,0.12093)" font-size="40" xml:space="preserve" fill="#b6b6b6" fill-rule="nonzero" stroke="none" stroke-width="1" stroke-linecap="butt" stroke-linejoin="miter" stroke-miterlimit="10" stroke-dasharray="" stroke-dashoffset="0" font-family="Marker" font-weight="normal" text-anchor="start" style="mix-blend-mode: normal"><tspan x="0" dy="0">-1 health every time you use a spell</tspan><tspan x="0" dy="48px">       card, lasts 3 spell cards</tspan></text><path d="M198.06134,132.54162l0.06719,-3.44617l3.38769,-0.08196l0.06412,3.60694l-1.76037,-0.06556l0.00313,-1.62496" fill="none" stroke="#9fff94" stroke-width="1.25" stroke-linecap="round"/><path d="M192.25799,122.21978l1.80587,4.63847l-1.9988,-0.78942l-2.31815,0.60623l2.51108,-4.45529z" fill="#ff6e00" stroke="#000000" stroke-width="0" stroke-linecap="round"/><path d="M207.28612,127.33825c0,0 -3.86064,-2.96054 -1.90429,-4.59895c1.07206,-0.89783 2.01516,0.74665 2.01516,0.74665c0,0 0.81357,-1.7868 2.30472,-0.65548c1.88806,1.43246 -2.41558,4.50778 -2.41558,4.50778z" fill="#ff2b4c" stroke="#000000" stroke-width="0" stroke-linecap="round"/><path d="M221.42801,135.10829l0.06719,-3.44617l3.38769,-0.08196l0.06412,3.60694l-1.76037,-0.06556l0.00313,-1.62496" fill="none" stroke="#9fff94" stroke-width="1.25" stroke-linecap="round"/><path d="M299.89467,250.54162l0.06719,-3.44617l3.38769,-0.08196l0.06412,3.60694l-1.76037,-0.06556l0.00313,-1.62496" fill="none" stroke="#9fff94" stroke-width="1.25" stroke-linecap="round"/><g stroke-width="0"><path d="M257.40329,171.10508l8.49319,0.45686c0,0 4.60229,7.17646 5.13004,12.37938c0.52774,5.20292 0.08925,7.11547 -2.88786,9.72575c-2.97711,2.61028 -8.65815,1.61206 -13.33088,4.49456c-4.67273,2.8825 2.63062,7.95887 2.63062,7.95887c0,0 -4.24651,-0.72807 -6.81187,-3.62877c-2.11205,-2.38814 -2.71144,-6.84145 -2.09936,-8.43522c1.35553,-3.52961 5.79349,-2.57629 7.06184,-5.94934c1.26835,-3.37305 -2.2702,-4.59604 -1.94278,-7.66432c0.32742,-3.06828 3.75707,-9.33776 3.75707,-9.33776z" fill="#b10000" stroke="#000000" stroke-linecap="round"/><path d="M249.37985,160.35513c1.28772,-7.34586 8.28661,-12.25694 15.63246,-10.96923c7.34586,1.28772 12.25694,8.28661 10.96923,15.63246c-1.28772,7.34586 -8.28661,12.25694 -15.63246,10.96923c-7.34586,-1.28772 -12.25694,-8.28661 -10.96923,-15.63246z" fill="#340000" stroke="none" stroke-linecap="butt"/><path d="M253.35977,174.3513c0.24712,-1.4097 1.59023,-2.35216 2.99993,-2.10504c1.4097,0.24712 2.35216,1.59023 2.10504,2.99993c-0.24712,1.4097 -1.59023,2.35216 -2.99993,2.10504c-1.4097,-0.24712 -2.35216,-1.59023 -2.10504,-2.99993z" fill="#340000" stroke="none" stroke-linecap="butt"/><path d="M259.72247,175.69276c0.24712,-1.4097 1.59023,-2.35216 2.99993,-2.10504c1.4097,0.24712 2.35216,1.59023 2.10504,2.99993c-0.24712,1.4097 -1.59023,2.35216 -2.99993,2.10504c-1.4097,-0.24712 -2.35216,-1.59023 -2.10504,-2.99993z" fill="#340000" stroke="none" stroke-linecap="butt"/><path d="M265.74212,175.47365c0.24712,-1.4097 1.59023,-2.35216 2.99993,-2.10504c1.4097,0.24712 2.35216,1.59023 2.10504,2.99993c-0.24712,1.4097 -1.59023,2.35216 -2.99993,2.10504c-1.4097,-0.24712 -2.35216,-1.59023 -2.10504,-2.99993z" fill="#340000" stroke="none" stroke-linecap="butt"/><path d="M253.07608,161.78213c0.37647,-2.14759 2.42262,-3.58336 4.57021,-3.2069c2.14759,0.37647 3.58336,2.42262 3.2069,4.57021c-0.37647,2.14759 -2.42262,3.58336 -4.57021,3.2069c-2.14759,-0.37647 -3.58336,-2.42262 -3.2069,-4.57021z" fill="#ff0000" stroke="none" stroke-linecap="butt"/><path d="M264.53517,162.66042c0.37647,-2.14759 2.42262,-3.58336 4.57021,-3.2069c2.14759,0.37647 3.58336,2.42262 3.2069,4.57021c-0.37647,2.14759 -2.42262,3.58336 -4.57021,3.2069c-2.14759,-0.37647 -3.58336,-2.42262 -3.2069,-4.57021z" fill="#ff0000" stroke="none" stroke-linecap="butt"/></g></g></g></svg>