<svg version="1.1" xmlns="http://www.w3.org/2000/svg" xmlns:xlink="http://www.w3.org/1999/xlink" width="119.4574" height="141.62198" viewBox="0,0,119.4574,141.62198"><g transform="translate(-189.74691,-114.56971)"><g data-paper-data="{&quot;isPaintingLayer&quot;:true}" fill-rule="nonzero" stroke-linejoin="miter" stroke-miterlimit="10" stroke-dasharray="" stroke-dashoffset="0" style="mix-blend-mode: normal"><path d="M217.83796,248.18126c0,-20.6544 0,-106.0357 0,-116.04086c0,-2.52654 1.76013,-4.59343 5.04862,-4.59343c9.7558,0 60.18863,0 78.06381,0c4.05966,0 6.50392,2.95594 6.50392,6.32819c0,10.97661 0,91.20752 0,112.81918c0,4.83749 -2.60769,7.74735 -5.55255,7.74735c-9.23248,0 -58.16283,0 -76.8247,0c-4.49924,0 -7.2391,-2.31816 -7.2391,-6.26042z" fill="#fff0e1" stroke="#000000" stroke-width="3.5" stroke-linecap="butt"/><path d="M218.17591,210.42507c0,-14.19545 0,-72.8767 0,-79.7531c0,-1.73645 1.7522,-3.15699 5.02587,-3.15699c9.71183,0 59.91736,0 77.71199,0c4.04137,0 6.47461,2.03157 6.47461,4.34927c0,7.54405 0,62.68552 0,77.53888c0,3.32473 -2.59594,5.32464 -5.52753,5.32464c-9.19087,0 -57.90071,0 -76.47847,0c-4.47896,0 -7.20647,-1.59323 -7.20647,-4.30269z" fill="#ffcd9a" stroke="#000000" stroke-width="3.5" stroke-linecap="butt"/><path d="M217.79763,133.19145c0,-3.12842 2.53609,-5.66451 5.66451,-5.66451c3.12842,0 5.66451,2.53609 5.66451,5.66451c0,3.12842 -2.53609,5.66451 -5.66451,5.66451c-3.12842,0 -5.66451,-2.53609 -5.66451,-5.66451z" fill="#252a5c" stroke="#000000" stroke-width="3.5" stroke-linecap="butt"/><g stroke="#94a1ff" stroke-width="3.5" stroke-linecap="round"><path d="M264.37211,207.36093c0,0 -27.71847,-0.41936 -29.91821,-63.60524c-0.00942,-0.27063 55.32626,-0.37336 55.32047,0c-0.96526,62.21579 -25.40226,63.60524 -25.40226,63.60524z" fill="#a2591a"/><path d="M263.78019,153.42854l0.09491,5.31578" fill="none"/><path d="M264.03364,167.62494l0.38477,21.55057" fill="none"/><path d="M264.62692,200.8535l-0.08849,-4.95652" fill="none"/><path d="M273.94109,154.82339v22.78366" fill="none"/><path d="M273.94109,184.04609v2.85889" fill="none"/><path d="M280.71502,155.10236v8.76432" fill="none"/><path d="M280.71502,169.77154v1.5111" fill="none"/><path d="M253.33703,154.54442l0.15172,19.49532" fill="none"/><path d="M253.5498,181.88323l0.06948,8.92734" fill="none"/><path d="M243.87436,162.76249l-0.41598,-8.49704" fill="none"/><path d="M244.25463,170.53025l0.05049,1.03136" fill="none"/></g><path d="M296.08225,248.61496c0,-3.12842 2.53609,-5.66451 5.66451,-5.66451c3.12842,0 5.66451,2.53609 5.66451,5.66451c0,3.12842 -2.53609,5.66451 -5.66451,5.66451c-3.12842,0 -5.66451,-2.53609 -5.66451,-5.66451z" fill="#252a5c" stroke="#000000" stroke-width="3.5" stroke-linecap="butt"/><path d="M200.04933,116.09387c0,0 1.19119,3.56829 -1.81717,4.0579c-2.24778,0.15497 -2.64539,-0.81645 -2.75082,-2.51299c-0.10521,-1.69307 3.10136,-4.30549 2.48376,0.13697" fill="none" stroke="#94a1ff" stroke-width="1.5" stroke-linecap="round"/><text transform="translate(241.5426,234.87173) scale(0.40052,0.45533)" font-size="40" xml:space="preserve" fill="#272727" fill-rule="nonzero" stroke="none" stroke-width="1" stroke-linecap="butt" stroke-linejoin="miter" stroke-miterlimit="10" stroke-dasharray="" stroke-dashoffset="0" font-family="Marker" font-weight="normal" text-anchor="start" style="mix-blend-mode: normal"><tspan x="0" dy="0">block</tspan></text><text transform="translate(236.1058,243.91794) scale(0.12066,0.131)" font-size="40" xml:space="preserve" fill="#b6b6b6" fill-rule="nonzero" stroke="none" stroke-width="1" stroke-linecap="butt" stroke-linejoin="miter" stroke-miterlimit="10" stroke-dasharray="" stroke-dashoffset="0" font-family="Marker" font-weight="normal" text-anchor="start" style="mix-blend-mode: normal"><tspan x="0" dy="0">blocks a spell on you</tspan></text><path d="M198.06134,132.54161l0.06719,-3.44617l3.38769,-0.08196l0.06412,3.60694l-1.76037,-0.06556l0.00313,-1.62496" fill="none" stroke="#9fff94" stroke-width="1.25" stroke-linecap="round"/><path d="M192.25799,122.21977l1.80587,4.63847l-1.9988,-0.78942l-2.31815,0.60623l2.51108,-4.45529z" fill="#ff6e00" stroke="#000000" stroke-width="0" stroke-linecap="round"/><path d="M207.28612,127.33824c0,0 -3.86064,-2.96054 -1.90429,-4.59895c1.07206,-0.89783 2.01516,0.74665 2.01516,0.74665c0,0 0.81357,-1.7868 2.30472,-0.65548c1.88806,1.43246 -2.41558,4.50778 -2.41558,4.50778z" fill="#ff2b4c" stroke="#000000" stroke-width="0" stroke-linecap="round"/><path d="M225.59695,131.54625c0,0 1.19119,3.56829 -1.81717,4.0579c-2.24778,0.15497 -2.64539,-0.81645 -2.75082,-2.51299c-0.10521,-1.69307 3.10136,-4.30549 2.48376,0.13697" fill="none" stroke="#94a1ff" stroke-width="1.5" stroke-linecap="round"/><path d="M303.78742,246.97482c0,0 1.19119,3.56829 -1.81717,4.0579c-2.24778,0.15497 -2.64539,-0.81645 -2.75082,-2.51299c-0.10521,-1.69307 3.10136,-4.30549 2.48376,0.13697" fill="none" stroke="#94a1ff" stroke-width="1.5" stroke-linecap="round"/><g stroke-width="3.5" stroke-linecap="round"><path d="M264.2039,204.11093c0,0 -24.55158,-0.37581 -26.5,-57c-0.00834,-0.24253 49.00513,-0.33459 49,0c-0.85498,55.75484 -22.5,57 -22.5,57z" fill="#a2591a" stroke="#000000"/><path d="M263.6796,155.77928l0.08407,4.76375" fill="none" stroke="#784213"/><path d="M263.9041,168.50142l0.34081,19.3126" fill="none" stroke="#784213"/><path d="M264.42959,198.27928l-0.07838,-4.4418" fill="none" stroke="#784213"/><path d="M272.6796,157.02928v20.41764" fill="none" stroke="#784213"/><path d="M272.6796,183.21728v2.562" fill="none" stroke="#784213"/><path d="M278.6796,157.27928v7.85417" fill="none" stroke="#784213"/><path d="M278.6796,170.4251v1.35418" fill="none" stroke="#784213"/><path d="M254.4296,156.77928l0.13439,17.47078" fill="none" stroke="#784213"/><path d="M254.61806,181.27902l0.06154,8.00026" fill="none" stroke="#784213"/><path d="M246.04805,164.14392l-0.36845,-7.61464" fill="none" stroke="#784213"/><path d="M246.38488,171.10502l0.04472,0.92426" fill="none" stroke="#784213"/></g></g></g></svg>