<svg version="1.1" xmlns="http://www.w3.org/2000/svg" xmlns:xlink="http://www.w3.org/1999/xlink" width="119.4574" height="141.62198" viewBox="0,0,119.4574,141.62198"><g transform="translate(-189.74691,-114.56971)"><g data-paper-data="{&quot;isPaintingLayer&quot;:true}" fill-rule="nonzero" stroke-linejoin="miter" stroke-miterlimit="10" stroke-dasharray="" stroke-dashoffset="0" style="mix-blend-mode: normal"><path d="M217.83796,248.18126c0,-20.6544 0,-106.0357 0,-116.04086c0,-2.52654 1.76013,-4.59343 5.04862,-4.59343c9.7558,0 60.18863,0 78.06381,0c4.05966,0 6.50392,2.95594 6.50392,6.32819c0,10.97661 0,91.20752 0,112.81918c0,4.83749 -2.60769,7.74735 -5.55255,7.74735c-9.23248,0 -58.16283,0 -76.8247,0c-4.49924,0 -7.2391,-2.31816 -7.2391,-6.26042z" fill="#fff2ed" stroke="#000000" stroke-width="3.5" stroke-linecap="butt"/><path d="M218.17591,210.42507c0,-14.19545 0,-72.8767 0,-79.7531c0,-1.73645 1.7522,-3.15699 5.02587,-3.15699c9.71183,0 59.91736,0 77.71199,0c4.04137,0 6.47461,2.03157 6.47461,4.34927c0,7.54405 0,62.68552 0,77.53888c0,3.32473 -2.59594,5.32464 -5.52753,5.32464c-9.19087,0 -57.90071,0 -76.47847,0c-4.47896,0 -7.20647,-1.59323 -7.20647,-4.30269z" fill="#ffddd0" stroke="#000000" stroke-width="3.5" stroke-linecap="butt"/><path d="M217.79763,133.19145c0,-3.12842 2.53609,-5.66451 5.66451,-5.66451c3.12842,0 5.66451,2.53609 5.66451,5.66451c0,3.12842 -2.53609,5.66451 -5.66451,5.66451c-3.12842,0 -5.66451,-2.53609 -5.66451,-5.66451z" fill="#5c3c25" stroke="#000000" stroke-width="3.5" stroke-linecap="butt"/><path d="M296.08225,248.61496c0,-3.12842 2.53609,-5.66451 5.66451,-5.66451c3.12842,0 5.66451,2.53609 5.66451,5.66451c0,3.12842 -2.53609,5.66451 -5.66451,5.66451c-3.12842,0 -5.66451,-2.53609 -5.66451,-5.66451z" fill="#5c3c25" stroke="#000000" stroke-width="3.5" stroke-linecap="butt"/><path d="M200.04933,116.09387c0,0 1.19119,3.56829 -1.81717,4.0579c-2.24778,0.15497 -2.64539,-0.81645 -2.75082,-2.51299c-0.10521,-1.69307 3.10136,-4.30549 2.48376,0.13697" fill="none" stroke="#94a1ff" stroke-width="1.5" stroke-linecap="round"/><text transform="translate(236.70927,234.37172) scale(0.33943,0.38589)" font-size="40" xml:space="preserve" fill="#272727" fill-rule="nonzero" stroke="none" stroke-width="1" stroke-linecap="butt" stroke-linejoin="miter" stroke-miterlimit="10" stroke-dasharray="" stroke-dashoffset="0" font-family="Marker" font-weight="normal" text-anchor="start" style="mix-blend-mode: normal"><tspan x="0" dy="0">fireball</tspan></text><text transform="translate(232.6058,243.41794) scale(0.12066,0.131)" font-size="40" xml:space="preserve" fill="#b6b6b6" fill-rule="nonzero" stroke="none" stroke-width="1" stroke-linecap="butt" stroke-linejoin="miter" stroke-miterlimit="10" stroke-dasharray="" stroke-dashoffset="0" font-family="Marker" font-weight="normal" text-anchor="start" style="mix-blend-mode: normal"><tspan x="0" dy="0">deal 2 damage to who ever</tspan><tspan x="0" dy="48px">         you whant</tspan></text><path d="M198.06134,132.54161l0.06719,-3.44617l3.38769,-0.08196l0.06412,3.60694l-1.76037,-0.06556l0.00313,-1.62496" fill="none" stroke="#9fff94" stroke-width="1.25" stroke-linecap="round"/><path d="M192.25799,122.21977l1.80587,4.63847l-1.9988,-0.78942l-2.31815,0.60623l2.51108,-4.45529z" fill="#ff6e00" stroke="#000000" stroke-width="0" stroke-linecap="round"/><path d="M207.28612,127.33824c0,0 -3.86064,-2.96054 -1.90429,-4.59895c1.07206,-0.89783 2.01516,0.74665 2.01516,0.74665c0,0 0.81357,-1.7868 2.30472,-0.65548c1.88806,1.43246 -2.41558,4.50778 -2.41558,4.50778z" fill="#ff2b4c" stroke="#000000" stroke-width="0" stroke-linecap="round"/><path d="M223.67466,130.71977l1.80587,4.63847l-1.9988,-0.78942l-2.31815,0.60623l2.51108,-4.45529z" fill="#ff6e00" stroke="#000000" stroke-width="0" stroke-linecap="round"/><path d="M302.17465,246.13644l1.80587,4.63847l-1.9988,-0.78942l-2.31815,0.60623l2.51108,-4.45529z" fill="#ff6e00" stroke="#000000" stroke-width="0" stroke-linecap="round"/><g stroke-width="0"><path d="M229.56714,181.77925c0,-10.17655 8.24973,-18.42628 18.42628,-18.42628c10.17655,0 18.42628,8.24973 18.42628,18.42628c0,10.17655 -8.24973,18.42627 -18.42628,18.42627c-10.17655,0 -18.42628,-8.24973 -18.42628,-18.42627z" fill="#f58c00" stroke="none" stroke-linecap="butt"/><path d="M240.73972,164.8062l26.32324,-12.34072l-2.93132,8.02929l29.89932,-11.19744l-8.71935,11.55416l10.48104,-2.66815l-16.22379,15.55712l10.57756,-0.42983l-30.77795,23.08346z" fill="#f58c00" stroke="#000000" stroke-linecap="round"/><path d="M232.24544,182.03886c0,-8.37632 6.79036,-15.16667 15.16667,-15.16667c8.37632,0 15.16667,6.79035 15.16667,15.16667c0,8.37632 -6.79035,15.16667 -15.16667,15.16667c-8.37632,0 -15.16667,-6.79035 -15.16667,-15.16667z" fill="#f54600" stroke="none" stroke-linecap="butt"/><path d="M241.41211,168.03886l21.66667,-11.66666l-4.33333,8.66666l29,-11l-8,10.33334l7.66666,-2.33334l-15,15l9.66667,-2l-25.33333,19z" fill="#f54600" stroke="#000000" stroke-linecap="round"/><path d="M236.57877,182.20552c0,-6.25922 5.07411,-11.33334 11.33334,-11.33334c6.25922,0 11.33334,5.07411 11.33334,11.33334c0,6.25922 -5.07411,11.33333 -11.33334,11.33333c-6.25922,0 -11.33334,-5.07411 -11.33334,-11.33333z" fill="#040404" stroke="none" stroke-linecap="butt"/></g></g></g></svg>