<svg version="1.1" xmlns="http://www.w3.org/2000/svg" xmlns:xlink="http://www.w3.org/1999/xlink" width="119.4574" height="141.28865" viewBox="0,0,119.4574,141.28865"><g transform="translate(-189.7469,-114.90302)"><g data-paper-data="{&quot;isPaintingLayer&quot;:true}" fill-rule="nonzero" stroke-linejoin="miter" stroke-miterlimit="10" stroke-dasharray="" stroke-dashoffset="0" style="mix-blend-mode: normal"><path d="M217.83796,248.18125c0,-20.6544 0,-106.0357 0,-116.04086c0,-2.52654 1.76013,-4.59343 5.04862,-4.59343c9.7558,0 60.18863,0 78.06381,0c4.05966,0 6.50392,2.95594 6.50392,6.32819c0,10.97661 0,91.20752 0,112.81918c0,4.83749 -2.60769,7.74735 -5.55255,7.74735c-9.23248,0 -58.16283,0 -76.8247,0c-4.49924,0 -7.2391,-2.31816 -7.2391,-6.26042z" fill="#fffaed" stroke="#000000" stroke-width="3.5" stroke-linecap="butt"/><path d="M218.17591,210.42506c0,-14.19545 0,-72.8767 0,-79.7531c0,-1.73645 1.7522,-3.15699 5.02587,-3.15699c9.71183,0 59.91736,0 77.71199,0c4.04137,0 6.47461,2.03157 6.47461,4.34927c0,7.54405 0,62.68552 0,77.53888c0,3.32473 -2.59594,5.32464 -5.52753,5.32464c-9.19087,0 -57.90071,0 -76.47847,0c-4.47896,0 -7.20647,-1.59323 -7.20647,-4.30269z" fill="#ffd670" stroke="#000000" stroke-width="3.5" stroke-linecap="butt"/><path d="M217.79763,133.19145c0,-3.12842 2.53609,-5.66451 5.66451,-5.66451c3.12842,0 5.66451,2.53609 5.66451,5.66451c0,3.12842 -2.53609,5.66451 -5.66451,5.66451c-3.12842,0 -5.66451,-2.53609 -5.66451,-5.66451z" fill="#5c252b" stroke="#000000" stroke-width="3.5" stroke-linecap="butt"/><path d="M296.08225,248.61495c0,-3.12842 2.53609,-5.66451 5.66451,-5.66451c3.12842,0 5.66451,2.53609 5.66451,5.66451c0,3.12842 -2.53609,5.66451 -5.66451,5.66451c-3.12842,0 -5.66451,-2.53609 -5.66451,-5.66451z" fill="#5c252b" stroke="#000000" stroke-width="3.5" stroke-linecap="butt"/><path d="M259.70027,198.43486c0,0 -41.73886,-32.00755 -20.58807,-49.72108c11.59047,-9.70688 21.78668,8.0723 21.78668,8.0723c0,0 8.79584,-19.31785 24.91722,-7.08667c20.4126,15.4869 -26.11583,48.73546 -26.11583,48.73546z" fill="#ffc32b" stroke="#000000" stroke-width="3.5" stroke-linecap="round"/><path d="M260.11069,192.12469c0,0 -23.83685,-23.37105 -22.05613,-33.45592" fill="none" stroke="#ba8b20" stroke-width="3.5" stroke-linecap="round"/><path d="M270.51919,152.72105c0,0 4.30315,-3.37091 9.84017,-0.07589c6.16663,3.66969 5.27695,8.25401 5.27695,8.25401" fill="none" stroke="#ffd36e" stroke-width="3.5" stroke-linecap="round"/><path d="M240.57634,154.25154c0,0 3.55969,-4.85784 7.36195,-2.30628c6.16663,3.66969 7.50734,7.75836 7.50734,7.75836" fill="none" stroke="#ffd36e" stroke-width="3.5" stroke-linecap="round"/><path d="M201.38266,116.42719c0,0 1.19119,3.56829 -1.81717,4.0579c-2.24778,0.15497 -2.64539,-0.81645 -2.75082,-2.51299c-0.10521,-1.69307 3.10136,-4.30549 2.48376,0.13697" fill="none" stroke="#94a1ff" stroke-width="1.5" stroke-linecap="round"/><text transform="translate(222.0426,235.87172) scale(0.40052,0.45533)" font-size="40" xml:space="preserve" fill="#272727" fill-rule="nonzero" stroke="none" stroke-width="1" stroke-linecap="butt" stroke-linejoin="miter" stroke-miterlimit="10" stroke-dasharray="" stroke-dashoffset="0" font-family="Marker" font-weight="normal" text-anchor="start" style="mix-blend-mode: normal"><tspan x="0" dy="0">gold heart</tspan></text><text transform="translate(224.6058,244.91793) scale(0.12066,0.131)" font-size="40" xml:space="preserve" fill="#b6b6b6" fill-rule="nonzero" stroke="none" stroke-width="1" stroke-linecap="butt" stroke-linejoin="miter" stroke-miterlimit="10" stroke-dasharray="" stroke-dashoffset="0" font-family="Marker" font-weight="normal" text-anchor="start" style="mix-blend-mode: normal"><tspan x="0" dy="0">is lost after 5 turns or when </tspan><tspan x="0" dy="48px">     the you are hurt</tspan></text><path d="M198.06134,132.5416l0.06719,-3.44617l3.38769,-0.08196l0.06412,3.60694l-1.76037,-0.06556l0.00313,-1.62496" fill="none" stroke="#9fff94" stroke-width="1.25" stroke-linecap="round"/><path d="M223.28612,135.93823c0,0 -3.86064,-2.96054 -1.90429,-4.59895c1.07206,-0.89783 2.01516,0.74665 2.01516,0.74665c0,0 0.81357,-1.7868 2.30471,-0.65548c1.88806,1.43246 -2.41558,4.50778 -2.41558,4.50778z" fill="#ff2b4c" stroke="#000000" stroke-width="0" stroke-linecap="round"/><path d="M192.25799,122.21976l1.80587,4.63847l-1.9988,-0.78942l-2.31815,0.60623l2.51108,-4.45529z" fill="#ff6e00" stroke="#000000" stroke-width="0" stroke-linecap="round"/><path d="M301.47682,251.24796c0,0 -3.86064,-2.96054 -1.9043,-4.59895c1.07206,-0.89783 2.01516,0.74665 2.01516,0.74665c0,0 0.81357,-1.7868 2.30471,-0.65548c1.88806,1.43246 -2.41558,4.50778 -2.41558,4.50778z" fill="#ff2b4c" stroke="#000000" stroke-width="0" stroke-linecap="round"/><path d="M207.28612,127.33823c0,0 -3.86064,-2.96054 -1.90429,-4.59895c1.07206,-0.89783 2.01516,0.74665 2.01516,0.74665c0,0 0.81357,-1.7868 2.30472,-0.65548c1.88806,1.43246 -2.41558,4.50778 -2.41558,4.50778z" fill="#ff2b4c" stroke="#000000" stroke-width="0" stroke-linecap="round"/><path d="M223.28611,135.93823c0,0 -3.86064,-2.96054 -1.90429,-4.59895c1.07206,-0.89783 2.01516,0.74665 2.01516,0.74665c0,0 0.81357,-1.7868 2.30472,-0.65548c1.88806,1.43246 -2.41558,4.50778 -2.41558,4.50778z" fill="#ff2b4c" stroke="#000000" stroke-width="0" stroke-linecap="round"/></g></g></svg>