<svg version="1.1" xmlns="http://www.w3.org/2000/svg" xmlns:xlink="http://www.w3.org/1999/xlink" width="119.4574" height="141.62198" viewBox="0,0,119.4574,141.62198"><g transform="translate(-189.74691,-114.5697)"><g data-paper-data="{&quot;isPaintingLayer&quot;:true}" fill-rule="nonzero" stroke-linejoin="miter" stroke-miterlimit="10" stroke-dasharray="" stroke-dashoffset="0" style="mix-blend-mode: normal"><path d="M217.83796,248.18126c0,-20.6544 0,-106.0357 0,-116.04086c0,-2.52654 1.76013,-4.59343 5.04862,-4.59343c9.7558,0 60.18863,0 78.06381,0c4.05966,0 6.50392,2.95594 6.50392,6.32819c0,10.97661 0,91.20752 0,112.81918c0,4.83749 -2.60769,7.74735 -5.55255,7.74735c-9.23248,0 -58.16283,0 -76.8247,0c-4.49924,0 -7.2391,-2.31816 -7.2391,-6.26042z" fill="#75939e" stroke="#000000" stroke-width="3.5" stroke-linecap="butt"/><path d="M218.17591,210.42507c0,-14.19545 0,-72.8767 0,-79.7531c0,-1.73645 1.7522,-3.15699 5.02587,-3.15699c9.71183,0 59.91736,0 77.71199,0c4.04137,0 6.47461,2.03157 6.47461,4.34927c0,7.54405 0,62.68552 0,77.53888c0,3.32473 -2.59594,5.32464 -5.52753,5.32464c-9.19087,0 -57.90071,0 -76.47847,0c-4.47896,0 -7.20647,-1.59323 -7.20647,-4.30269z" fill="#4d6d79" stroke="#000000" stroke-width="3.5" stroke-linecap="butt"/><path d="M217.79763,133.19145c0,-3.12842 2.53609,-5.66451 5.66451,-5.66451c3.12842,0 5.66451,2.53609 5.66451,5.66451c0,3.12842 -2.53609,5.66451 -5.66451,5.66451c-3.12842,0 -5.66451,-2.53609 -5.66451,-5.66451z" fill="#5c3c25" stroke="#000000" stroke-width="3.5" stroke-linecap="butt"/><path d="M296.08225,248.61496c0,-3.12842 2.53609,-5.66451 5.66451,-5.66451c3.12842,0 5.66451,2.53609 5.66451,5.66451c0,3.12842 -2.53609,5.66451 -5.66451,5.66451c-3.12842,0 -5.66451,-2.53609 -5.66451,-5.66451z" fill="#5c3c25" stroke="#000000" stroke-width="3.5" stroke-linecap="butt"/><path d="M200.04933,116.09387c0,0 1.19119,3.56829 -1.81717,4.0579c-2.24778,0.15497 -2.64539,-0.81645 -2.75082,-2.51299c-0.10521,-1.69307 3.10136,-4.30549 2.48376,0.13697" fill="none" stroke="#94a1ff" stroke-width="1.5" stroke-linecap="round"/><text transform="translate(220.37593,235.37172) scale(0.33943,0.38589)" font-size="40" xml:space="preserve" fill="#272727" fill-rule="nonzero" stroke="none" stroke-width="1" stroke-linecap="butt" stroke-linejoin="miter" stroke-miterlimit="10" stroke-dasharray="" stroke-dashoffset="0" font-family="Marker" font-weight="normal" text-anchor="start" style="mix-blend-mode: normal"><tspan x="0" dy="0">lighting bolt</tspan></text><text transform="translate(232.6058,244.0846) scale(0.12066,0.131)" font-size="40" xml:space="preserve" fill="#b6b6b6" fill-rule="nonzero" stroke="none" stroke-width="1" stroke-linecap="butt" stroke-linejoin="miter" stroke-miterlimit="10" stroke-dasharray="" stroke-dashoffset="0" font-family="Marker" font-weight="normal" text-anchor="start" style="mix-blend-mode: normal"><tspan x="0" dy="0">deal 3 damage to who ever</tspan><tspan x="0" dy="48px">         you whant</tspan></text><path d="M198.06134,132.54161l0.06719,-3.44617l3.38769,-0.08196l0.06412,3.60694l-1.76037,-0.06556l0.00313,-1.62496" fill="none" stroke="#9fff94" stroke-width="1.25" stroke-linecap="round"/><path d="M192.25799,122.21977l1.80587,4.63847l-1.9988,-0.78942l-2.31815,0.60623l2.51108,-4.45529z" fill="#ff6e00" stroke="#000000" stroke-width="0" stroke-linecap="round"/><path d="M207.28612,127.33824c0,0 -3.86064,-2.96054 -1.90429,-4.59895c1.07206,-0.89783 2.01516,0.74665 2.01516,0.74665c0,0 0.81357,-1.7868 2.30472,-0.65548c1.88806,1.43246 -2.41558,4.50778 -2.41558,4.50778z" fill="#ff2b4c" stroke="#000000" stroke-width="0" stroke-linecap="round"/><path d="M223.67466,130.71977l1.80587,4.63847l-1.9988,-0.78942l-2.31815,0.60623l2.51108,-4.45529z" fill="#ff6e00" stroke="#000000" stroke-width="0" stroke-linecap="round"/><path d="M302.17465,246.13644l1.80587,4.63847l-1.9988,-0.78942l-2.31815,0.60623l2.51108,-4.45529z" fill="#ff6e00" stroke="#000000" stroke-width="0" stroke-linecap="round"/><path d="M276.79703,165.81357l-12.87121,15.35986l6.66593,-2.93143l-16.59294,21.57869l5.44467,-12.55832l-7.76134,3.76674l17.36355,-29.57992z" fill="#ffe800" stroke="#ffc500" stroke-width="3" stroke-linecap="round"/><path d="M250.70253,163.34899c0,0 4.84891,4.52441 7.39251,4.96285c2.8106,0.48446 8.75018,-2.18034 8.75018,-2.18034c0,0 8.45185,3.70754 11.89785,3.22118c3.6604,-0.51661 7.72174,-7.39494 7.72174,-7.39494c0,0 6.14252,-0.50417 7.46905,-2.15555c1.40122,-1.74436 0.22978,-7.46729 0.22978,-7.46729c0,0 3.52596,-2.24616 3.19891,-4.79918c-0.34726,-2.84137 -4.1079,-4.4681 -4.1079,-4.4681c0,0 -1.76036,-5.5461 -4.03257,-6.62104c-2.22523,-1.05271 -9.33851,1.3961 -9.33851,1.3961c0,0 -4.86771,-5.05339 -8.01148,-5.14808c-3.26716,-0.0984 -10.24219,3.29307 -10.24219,3.29307c0,0 -5.14893,-2.61721 -7.45553,-2.21569c-2.55263,0.44435 -7.19707,4.76632 -7.19707,4.76632c0,0 -4.07126,-0.8593 -5.62601,-0.1521c-1.66608,0.75784 -1.45194,6.52867 -1.45194,6.52867c0,0 -4.61286,3.2019 -4.57246,5.31398c0.23133,3.15684 4.94498,5.12042 4.94498,5.12042c0,0 -0.39075,7.16912 1.73722,8.3687c2.25245,1.26976 8.69345,-0.369 8.69345,-0.369z" fill="#465f68" stroke="#233034" stroke-width="3" stroke-linecap="round"/></g></g></svg>