<svg version="1.1" xmlns="http://www.w3.org/2000/svg" xmlns:xlink="http://www.w3.org/1999/xlink" width="119.4574" height="141.62198" viewBox="0,0,119.4574,141.62198"><g transform="translate(-189.74691,-114.5697)"><g data-paper-data="{&quot;isPaintingLayer&quot;:true}" fill-rule="nonzero" stroke-linejoin="miter" stroke-miterlimit="10" stroke-dasharray="" stroke-dashoffset="0" style="mix-blend-mode: normal"><path d="M217.83796,248.18125c0,-20.6544 0,-106.0357 0,-116.04086c0,-2.52654 1.76013,-4.59343 5.04862,-4.59343c9.7558,0 60.18863,0 78.06381,0c4.05966,0 6.50392,2.95594 6.50392,6.32819c0,10.97661 0,91.20752 0,112.81918c0,4.83749 -2.60769,7.74735 -5.55255,7.74735c-9.23248,0 -58.16283,0 -76.8247,0c-4.49924,0 -7.2391,-2.31816 -7.2391,-6.26042z" fill="#fffbed" stroke="#000000" stroke-width="3.5" stroke-linecap="butt"/><path d="M218.03512,210.56423c0,-14.19545 0,-72.8767 0,-79.7531c0,-1.73645 1.7522,-3.15699 5.02587,-3.15699c9.71183,0 59.91736,0 77.71199,0c4.04137,0 6.47461,2.03157 6.47461,4.34927c0,7.54405 0,62.68552 0,77.53888c0,3.32473 -2.59594,5.32464 -5.52753,5.32464c-9.19087,0 -57.90071,0 -76.47847,0c-4.47896,0 -7.20647,-1.59323 -7.20647,-4.30269z" fill="#fff3cf" stroke="#000000" stroke-width="3.5" stroke-linecap="butt"/><path d="M217.79763,133.19145c0,-3.12842 2.53609,-5.66451 5.66451,-5.66451c3.12842,0 5.66451,2.53609 5.66451,5.66451c0,3.12842 -2.53609,5.66451 -5.66451,5.66451c-3.12842,0 -5.66451,-2.53609 -5.66451,-5.66451z" fill="#252a5c" stroke="#000000" stroke-width="3.5" stroke-linecap="butt"/><path d="M296.08225,248.61495c0,-3.12842 2.53609,-5.66451 5.66451,-5.66451c3.12842,0 5.66451,2.53609 5.66451,5.66451c0,3.12842 -2.53609,5.66451 -5.66451,5.66451c-3.12842,0 -5.66451,-2.53609 -5.66451,-5.66451z" fill="#252a5c" stroke="#000000" stroke-width="3.5" stroke-linecap="butt"/><path d="M200.04933,116.09386c0,0 1.19119,3.56829 -1.81717,4.0579c-2.24778,0.15497 -2.64539,-0.81645 -2.75082,-2.51299c-0.10521,-1.69307 3.10136,-4.30549 2.48376,0.13697" fill="none" stroke="#94a1ff" stroke-width="1.5" stroke-linecap="round"/><text transform="translate(222.0426,235.87172) scale(0.40052,0.45533)" font-size="40" xml:space="preserve" fill="#272727" fill-rule="nonzero" stroke="none" stroke-width="1" stroke-linecap="butt" stroke-linejoin="miter" stroke-miterlimit="10" stroke-dasharray="" stroke-dashoffset="0" font-family="Marker" font-weight="normal" text-anchor="start" style="mix-blend-mode: normal"><tspan x="0" dy="0">spell book</tspan></text><text transform="translate(232.6058,244.41793) scale(0.12066,0.131)" font-size="40" xml:space="preserve" fill="#b6b6b6" fill-rule="nonzero" stroke="none" stroke-width="1" stroke-linecap="butt" stroke-linejoin="miter" stroke-miterlimit="10" stroke-dasharray="" stroke-dashoffset="0" font-family="Marker" font-weight="normal" text-anchor="start" style="mix-blend-mode: normal"><tspan x="0" dy="0">take the top 3 cards from </tspan><tspan x="0" dy="48px">          the deck</tspan></text><path d="M198.06134,132.5416l0.06719,-3.44617l3.38769,-0.08196l0.06412,3.60694l-1.76037,-0.06556l0.00313,-1.62496" fill="none" stroke="#9fff94" stroke-width="1.25" stroke-linecap="round"/><path d="M192.25799,122.21976l1.80587,4.63847l-1.9988,-0.78942l-2.31815,0.60623l2.51108,-4.45529z" fill="#ff6e00" stroke="#000000" stroke-width="0" stroke-linecap="round"/><path d="M207.28612,127.33823c0,0 -3.86064,-2.96054 -1.90429,-4.59895c1.07206,-0.89783 2.01516,0.74665 2.01516,0.74665c0,0 0.81357,-1.7868 2.30472,-0.65548c1.88806,1.43246 -2.41558,4.50778 -2.41558,4.50778z" fill="#ff2b4c" stroke="#000000" stroke-width="0" stroke-linecap="round"/><g stroke-linecap="round"><path d="M234.52971,168.23051c0,0 10.91309,1.49566 15.40458,3.0697c4.29384,1.50478 14.24876,4.20368 14.24876,4.20368c0,0 7.32522,-3.03691 11.722,-4.62805c4.27852,-1.54833 18.11678,-3.2441 18.11678,-3.2441v32.31636c0,0 -14.18432,1.53372 -18.58003,2.97982c-4.43672,1.4596 -11.44389,4.39922 -11.44389,4.39922c0,0 -10.87969,-3.37519 -15.23543,-5.01757c-4.2015,-1.58423 -14.00134,-2.90742 -14.00134,-2.90742z" fill="#a66b1e" stroke="#000000" stroke-width="2.5"/><path d="M238.13757,172.14452c0,0 9.47218,1.20368 13.37064,2.47044c3.72691,1.21102 12.58537,3.35717 12.58537,3.35717c0,0 6.14009,-2.41818 9.95634,-3.6987c3.7136,-1.24607 15.8337,-2.66254 15.8337,-2.66254v26.00762c0,0 -12.42046,1.28605 -16.23578,2.44985c-3.85092,1.17466 -9.956,3.34447 -9.956,3.34447c0,0 -9.42008,-2.52035 -13.20071,-3.84211c-3.64675,-1.27496 -12.15267,-2.33983 -12.15267,-2.33983z" fill="#fff9e7" stroke="#000000" stroke-width="2.5"/><path d="M241.37756,172.30781c0,0 8.30985,1.20368 11.72992,2.47044c3.26958,1.21102 11.24356,3.35717 11.24356,3.35717c0,0 5.18407,-2.41818 8.53203,-3.6987c3.25791,-1.24607 13.99201,-2.66254 13.99201,-2.66254v26.00762c0,0 -10.99762,1.28605 -14.34475,2.44985c-3.37836,1.17466 -8.53173,3.34446 -8.53173,3.34446c0,0 -8.46669,-2.52034 -11.7834,-3.8421c-3.19926,-1.27495 -10.66141,-2.33983 -10.66141,-2.33983z" fill="#fff9e7" stroke="#000000" stroke-width="2.5"/><path d="M245.50342,177.12668c0,0 5.81597,1.13168 8.31463,2.01364" fill="none" stroke="#000000" stroke-width="2.5"/><path d="M258.36252,181.29439c1.06152,0.57568 1.82695,1.02494 1.82695,1.02494" fill="none" stroke="#94a1ff" stroke-width="2.5"/><path d="M245.50342,181.43756c0,0 5.82548,1.13353 8.32076,2.01581c2.39605,0.84718 6.3653,3.17684 6.3653,3.17684" fill="none" stroke="#000000" stroke-width="2.5"/><path d="M245.6394,185.55249c0,0 0.74644,0.14524 1.81937,0.37221" fill="none" stroke="#000000" stroke-width="2.5"/><path d="M252.6062,187.14853c0.50786,0.14251 0.97028,0.28411 1.35395,0.41977c2.39605,0.84718 6.3653,3.17684 6.3653,3.17684" fill="none" stroke="#94a1ff" stroke-width="2.5"/><path d="M245.91136,189.3735c0,0 5.82548,1.13353 8.32076,2.01581c2.39605,0.84718 6.3653,3.17684 6.3653,3.17684" fill="none" stroke="#000000" stroke-width="2.5"/><path d="M246.04735,193.58641c0,0 3.45191,0.67168 6.17952,1.38339" fill="none" stroke="#000000" stroke-width="3"/><path d="M257.00706,196.76442c1.91442,0.95118 3.72634,2.01464 3.72634,2.01464" fill="none" stroke="#000000" stroke-width="2.5"/><path d="M268.07642,181.14364c0,0 3.96925,-2.32966 6.3653,-3.17684c2.49528,-0.88227 8.32076,-2.01581 8.32076,-2.01581" data-paper-data="{&quot;index&quot;:null}" fill="none" stroke="#000000" stroke-width="2.5"/><path d="M268.34839,186.04237c0,0 1.05601,-0.6198 2.40745,-1.33627" data-paper-data="{&quot;index&quot;:null}" fill="none" stroke="#000000" stroke-width="2.5"/><path d="M275.36972,182.6503c2.73153,-0.84067 7.66472,-1.80058 7.66472,-1.80058" data-paper-data="{&quot;index&quot;:null}" fill="none" stroke="#94a1ff" stroke-width="3"/><path d="M267.66848,190.5492c0,0 3.96925,-2.32966 6.3653,-3.17684c2.49528,-0.88227 8.32076,-2.01581 8.32076,-2.01581" data-paper-data="{&quot;index&quot;:null}" fill="none" stroke="#000000" stroke-width="2.5"/><path d="M268.07642,194.56615c0,0 3.96925,-2.32966 6.3653,-3.17684c0.65496,-0.23158 1.53936,-0.48047 2.48763,-0.72163" data-paper-data="{&quot;index&quot;:null}" fill="none" stroke="#94a1ff" stroke-width="2.5"/><path d="M282.11802,189.50223c0.40405,-0.08195 0.64446,-0.12873 0.64446,-0.12873" data-paper-data="{&quot;index&quot;:null}" fill="none" stroke="#000000" stroke-width="2.5"/><path d="M268.48437,198.28919c0,0 3.96925,-2.32966 6.3653,-3.17685c2.49528,-0.88227 8.32076,-2.01581 8.32076,-2.01581" data-paper-data="{&quot;index&quot;:null}" fill="none" stroke="#000000" stroke-width="2.5"/><path d="M264.05885,202.5156l0.27196,-24.19973" fill="none" stroke="#000000" stroke-width="3.5"/><path d="M262.54621,166.76305c0,0 2.31964,6.94863 -3.53862,7.90206c-4.37716,0.30178 -5.15144,-1.58989 -5.35674,-4.89361c-0.20488,-3.29696 6.03936,-8.3842 4.83669,0.26673" fill="none" stroke="#94a1ff" stroke-width="2.5"/><path d="M268.34629,158.14922c0,0 4.20143,-4.39714 7.17287,-0.46638c1.91877,3.09619 0.83036,4.39807 -1.51524,5.8298c-2.3408,1.42879 -8.49647,-1.18243 -1.67963,-3.65396" fill="none" stroke="#94a1ff" stroke-width="2.5"/><path d="M261.90789,147.2032c0,0 4.45317,1.46437 2.70413,4.83581c-1.51761,2.36217 -2.78448,2.03681 -4.55878,0.87984c-1.77066,-1.15461 -1.99608,-6.30371 1.98502,-2.38083" data-paper-data="{&quot;index&quot;:null}" fill="none" stroke="#94a1ff" stroke-width="2.5"/><path d="M271.17555,135.04599c0,0 3.59607,1.18253 2.18367,3.90507c-1.22552,1.90752 -2.24855,1.64479 -3.68135,0.7105c-1.42986,-0.93238 -1.6119,-5.09044 1.60297,-1.9226" data-paper-data="{&quot;index&quot;:null}" fill="none" stroke="#94a1ff" stroke-width="1.5"/></g><path d="M225.59695,131.54624c0,0 1.19119,3.56829 -1.81717,4.0579c-2.24778,0.15497 -2.64539,-0.81645 -2.75082,-2.51299c-0.10521,-1.69307 3.10136,-4.30549 2.48376,0.13697" fill="none" stroke="#94a1ff" stroke-width="1.5" stroke-linecap="round"/><path d="M303.78742,246.97481c0,0 1.19119,3.56829 -1.81717,4.0579c-2.24778,0.15497 -2.64539,-0.81645 -2.75082,-2.51299c-0.10521,-1.69307 3.10136,-4.30549 2.48376,0.13697" fill="none" stroke="#94a1ff" stroke-width="1.5" stroke-linecap="round"/></g></g></svg>