<svg version="1.1" xmlns="http://www.w3.org/2000/svg" xmlns:xlink="http://www.w3.org/1999/xlink" width="119.4574" height="141.62198" viewBox="0,0,119.4574,141.62198"><g transform="translate(-189.74691,-114.56971)"><g data-paper-data="{&quot;isPaintingLayer&quot;:true}" fill-rule="nonzero" stroke-linejoin="miter" stroke-miterlimit="10" stroke-dasharray="" stroke-dashoffset="0" style="mix-blend-mode: normal"><path d="M217.83796,248.18126c0,-20.6544 0,-106.0357 0,-116.04086c0,-2.52654 1.76013,-4.59343 5.04862,-4.59343c9.7558,0 60.18863,0 78.06381,0c4.05966,0 6.50392,2.95594 6.50392,6.32819c0,10.97661 0,91.20752 0,112.81918c0,4.83749 -2.60769,7.74735 -5.55255,7.74735c-9.23248,0 -58.16283,0 -76.8247,0c-4.49924,0 -7.2391,-2.31816 -7.2391,-6.26042z" fill="#eff1ff" stroke="#000000" stroke-width="3.5" stroke-linecap="butt"/><path d="M218.17591,210.42507c0,-14.19545 0,-72.8767 0,-79.7531c0,-1.73645 1.7522,-3.15699 5.02587,-3.15699c9.71183,0 59.91736,0 77.71199,0c4.04137,0 6.47461,2.03157 6.47461,4.34927c0,7.54405 0,62.68552 0,77.53888c0,3.32473 -2.59594,5.32464 -5.52753,5.32464c-9.19087,0 -57.90071,0 -76.47847,0c-4.47896,0 -7.20647,-1.59323 -7.20647,-4.30269z" fill="#dde0ff" stroke="#000000" stroke-width="3.5" stroke-linecap="butt"/><path d="M217.79763,133.19145c0,-3.12842 2.53609,-5.66451 5.66451,-5.66451c3.12842,0 5.66451,2.53609 5.66451,5.66451c0,3.12842 -2.53609,5.66451 -5.66451,5.66451c-3.12842,0 -5.66451,-2.53609 -5.66451,-5.66451z" fill="#252a5c" stroke="#000000" stroke-width="3.5" stroke-linecap="butt"/><path d="M296.08225,248.61496c0,-3.12842 2.53609,-5.66451 5.66451,-5.66451c3.12842,0 5.66451,2.53609 5.66451,5.66451c0,3.12842 -2.53609,5.66451 -5.66451,5.66451c-3.12842,0 -5.66451,-2.53609 -5.66451,-5.66451z" fill="#252a5c" stroke="#000000" stroke-width="3.5" stroke-linecap="butt"/><path d="M200.04933,116.09387c0,0 1.19119,3.56829 -1.81717,4.0579c-2.24778,0.15497 -2.64539,-0.81645 -2.75082,-2.51299c-0.10521,-1.69307 3.10136,-4.30549 2.48376,0.13697" fill="none" stroke="#94a1ff" stroke-width="1.5" stroke-linecap="round"/><text transform="translate(220.2426,235.32173) scale(0.30889,0.35117)" font-size="40" xml:space="preserve" fill="#272727" fill-rule="nonzero" stroke="none" stroke-width="1" stroke-linecap="butt" stroke-linejoin="miter" stroke-miterlimit="10" stroke-dasharray="" stroke-dashoffset="0" font-family="Marker" font-weight="normal" text-anchor="start" style="mix-blend-mode: normal"><tspan x="0" dy="0">time Scavenge</tspan></text><text transform="translate(228.8058,242.61794) scale(0.12066,0.131)" font-size="40" xml:space="preserve" fill="#b6b6b6" fill-rule="nonzero" stroke="none" stroke-width="1" stroke-linecap="butt" stroke-linejoin="miter" stroke-miterlimit="10" stroke-dasharray="" stroke-dashoffset="0" font-family="Marker" font-weight="normal" text-anchor="start" style="mix-blend-mode: normal"><tspan x="0" dy="0">pick up the top card from </tspan><tspan x="0" dy="48px">    the discard pile</tspan></text><path d="M198.06134,132.54161l0.06719,-3.44617l3.38769,-0.08196l0.06412,3.60694l-1.76037,-0.06556l0.00313,-1.62496" fill="none" stroke="#9fff94" stroke-width="1.25" stroke-linecap="round"/><path d="M192.25799,122.21977l1.80587,4.63847l-1.9988,-0.78942l-2.31815,0.60623l2.51108,-4.45529z" fill="#ff6e00" stroke="#000000" stroke-width="0" stroke-linecap="round"/><path d="M207.28612,127.33824c0,0 -3.86064,-2.96054 -1.90429,-4.59895c1.07206,-0.89783 2.01516,0.74665 2.01516,0.74665c0,0 0.81357,-1.7868 2.30472,-0.65548c1.88806,1.43246 -2.41558,4.50778 -2.41558,4.50778z" fill="#ff2b4c" stroke="#000000" stroke-width="0" stroke-linecap="round"/><path d="M225.59695,131.54625c0,0 1.19119,3.56829 -1.81717,4.0579c-2.24778,0.15497 -2.64539,-0.81645 -2.75082,-2.51299c-0.10521,-1.69307 3.10136,-4.30549 2.48376,0.13697" fill="none" stroke="#94a1ff" stroke-width="1.5" stroke-linecap="round"/><path d="M303.78742,246.97482c0,0 1.19119,3.56829 -1.81717,4.0579c-2.24778,0.15497 -2.64539,-0.81645 -2.75082,-2.51299c-0.10521,-1.69307 3.10136,-4.30549 2.48376,0.13697" fill="none" stroke="#94a1ff" stroke-width="1.5" stroke-linecap="round"/><g stroke="#000000"><path d="M268.48407,182.23791l-1.69083,4.35252" fill="none" stroke-width="2.5" stroke-linecap="round"/><g><path d="M279.08213,200.25917c-0.27215,3.86168 -8.31903,6.44064 -17.97323,5.76027c-9.6542,-0.68036 -17.25986,-4.36241 -16.98772,-8.22409c0.27214,-3.86168 8.31904,-6.44065 17.97324,-5.76029c9.6542,0.68036 17.25985,4.36243 16.98771,8.22411z" fill="#815317" stroke-width="3.5" stroke-linecap="butt"/><path d="M282.55366,145.45964c-0.27215,3.86168 -8.31904,6.44064 -17.97324,5.76028c-9.6542,-0.68036 -17.25985,-4.36243 -16.98771,-8.22411c0.27214,-3.86168 8.31903,-6.44064 17.97323,-5.76028c9.6542,0.68036 17.25986,4.36242 16.98771,8.2241z" fill="#a66b1e" stroke-width="3.5" stroke-linecap="butt"/><path d="M282.44417,147.01347c-0.98471,27.20039 -12.04052,16.00532 -18.3136,24.34404c-6.62931,8.81225 -17.49578,1.10706 -20.45259,27.18738" fill="none" stroke-width="3.5" stroke-linecap="round"/><path d="M278.77582,199.06643c0.94556,-24.80807 -9.86973,-17.33236 -14.96455,-26.27943c-5.31741,-9.33795 -18.10511,-0.10973 -16.30067,-28.62582" fill="none" stroke-width="3.5" stroke-linecap="round"/><path d="M277.85749,161.13444c0,0 -1.26082,2.79656 -4.41703,4.17508c-2.92384,1.27703 -6.48546,1.57574 -7.87789,2.60406c-1.76275,1.30182 -2.24039,5.59226 -2.24039,5.59226c0,0 0.2603,-3.744 -1.27052,-5.30548c-1.08521,-1.10694 -4.84177,-2.37563 -7.30279,-3.58282c-3.37853,-1.65725 -3.86659,-5.14991 -3.86659,-5.14991c0,0 9.03343,-1.54953 13.9823,-1.20077c4.75472,0.33508 12.9929,2.86758 12.9929,2.86758z" fill="#94a1ff" stroke-width="0" stroke-linecap="round"/><path d="M253.19057,197.62235l8.7209,-10.38214l0.39119,-11.27054c0,0 0.3782,-0.39145 0.3892,-0.40983c0.64798,-1.08338 0.67998,-2.9486 0.67998,-2.9486c0,0 -0.06667,1.84199 0.12836,3.18751c0.00552,0.03806 0.20418,0.39298 0.20418,0.39298l-0.94164,11.05769l7.47502,11.10585c0,0 -5.89487,1.85697 -8.79264,1.73238c-2.77972,-0.11951 -8.25454,-2.4653 -8.25454,-2.4653z" fill="#94a1ff" stroke-width="0" stroke-linecap="round"/><path d="M261.53809,182.60016l9.70756,7.28517l-6.06273,8.01128l3.02414,3.37963" fill="none" stroke-width="2.5" stroke-linecap="round"/><path d="M264.72596,197.79547l-3.76911,-0.90443" fill="none" stroke-width="2.5" stroke-linecap="round"/></g></g></g></g></svg>