<svg version="1.1" xmlns="http://www.w3.org/2000/svg" xmlns:xlink="http://www.w3.org/1999/xlink" width="119.4574" height="141.62198" viewBox="0,0,119.4574,141.62198"><g transform="translate(-189.74691,-114.56971)"><g data-paper-data="{&quot;isPaintingLayer&quot;:true}" fill-rule="nonzero" stroke-linejoin="miter" stroke-miterlimit="10" stroke-dasharray="" stroke-dashoffset="0" style="mix-blend-mode: normal"><path d="M217.83796,248.18127c0,-20.6544 0,-106.0357 0,-116.04086c0,-2.52654 1.76013,-4.59343 5.04862,-4.59343c9.7558,0 60.18863,0 78.06381,0c4.05966,0 6.50392,2.95594 6.50392,6.32819c0,10.97661 0,91.20752 0,112.81918c0,4.83749 -2.60769,7.74735 -5.55255,7.74735c-9.23248,0 -58.16283,0 -76.8247,0c-4.49924,0 -7.2391,-2.31816 -7.2391,-6.26042z" fill="#f1edff" stroke="#000000" stroke-width="3.5" stroke-linecap="butt"/><path d="M218.17591,210.42508c0,-14.19545 0,-72.8767 0,-79.7531c0,-1.73645 1.7522,-3.15699 5.02587,-3.15699c9.71183,0 59.91736,0 77.71199,0c4.04137,0 6.47461,2.03157 6.47461,4.34927c0,7.54405 0,62.68552 0,77.53888c0,3.32473 -2.59594,5.32464 -5.52753,5.32464c-9.19087,0 -57.90071,0 -76.47847,0c-4.47896,0 -7.20647,-1.59323 -7.20647,-4.30269z" fill="#dad1ff" stroke="#000000" stroke-width="3.5" stroke-linecap="butt"/><path d="M217.79763,133.19145c0,-3.12842 2.53609,-5.66451 5.66451,-5.66451c3.12842,0 5.66451,2.53609 5.66451,5.66451c0,3.12842 -2.53609,5.66451 -5.66451,5.66451c-3.12842,0 -5.66451,-2.53609 -5.66451,-5.66451z" fill="#5c3c25" stroke="#000000" stroke-width="3.5" stroke-linecap="butt"/><path d="M296.08225,248.61497c0,-3.12842 2.53609,-5.66451 5.66451,-5.66451c3.12842,0 5.66451,2.53609 5.66451,5.66451c0,3.12842 -2.53609,5.66451 -5.66451,5.66451c-3.12842,0 -5.66451,-2.53609 -5.66451,-5.66451z" fill="#5c3c25" stroke="#000000" stroke-width="3.5" stroke-linecap="butt"/><path d="M200.04933,116.09388c0,0 1.19119,3.56829 -1.81717,4.0579c-2.24778,0.15497 -2.64539,-0.81645 -2.75082,-2.51299c-0.10521,-1.69307 3.10136,-4.30549 2.48376,0.13697" fill="none" stroke="#94a1ff" stroke-width="1.5" stroke-linecap="round"/><text transform="translate(236.70927,233.03839) scale(0.33943,0.38589)" font-size="40" xml:space="preserve" fill="#272727" fill-rule="nonzero" stroke="none" stroke-width="1" stroke-linecap="butt" stroke-linejoin="miter" stroke-miterlimit="10" stroke-dasharray="" stroke-dashoffset="0" font-family="Marker" font-weight="normal" text-anchor="start" style="mix-blend-mode: normal"><tspan x="0" dy="0">void fog</tspan></text><text transform="translate(238.27247,243.41794) scale(0.12066,0.131)" font-size="40" xml:space="preserve" fill="#b6b6b6" fill-rule="nonzero" stroke="none" stroke-width="1" stroke-linecap="butt" stroke-linejoin="miter" stroke-miterlimit="10" stroke-dasharray="" stroke-dashoffset="0" font-family="Marker" font-weight="normal" text-anchor="start" style="mix-blend-mode: normal"><tspan x="0" dy="0">deal 1 damage to every</tspan><tspan x="0" dy="48px">  one exept you self</tspan></text><path d="M198.06134,132.54162l0.06719,-3.44617l3.38769,-0.08196l0.06412,3.60694l-1.76037,-0.06556l0.00313,-1.62496" fill="none" stroke="#9fff94" stroke-width="1.25" stroke-linecap="round"/><path d="M192.25799,122.21978l1.80587,4.63847l-1.9988,-0.78942l-2.31815,0.60623l2.51108,-4.45529z" fill="#ff6e00" stroke="#000000" stroke-width="0" stroke-linecap="round"/><path d="M207.28612,127.33825c0,0 -3.86064,-2.96054 -1.90429,-4.59895c1.07206,-0.89783 2.01516,0.74665 2.01516,0.74665c0,0 0.81357,-1.7868 2.30472,-0.65548c1.88806,1.43246 -2.41558,4.50778 -2.41558,4.50778z" fill="#ff2b4c" stroke="#000000" stroke-width="0" stroke-linecap="round"/><path d="M223.67466,130.71978l1.80587,4.63847l-1.9988,-0.78942l-2.31815,0.60623l2.51108,-4.45529z" fill="#ff6e00" stroke="#000000" stroke-width="0" stroke-linecap="round"/><path d="M302.17465,246.13645l1.80587,4.63847l-1.9988,-0.78942l-2.31815,0.60623l2.51108,-4.45529z" fill="#ff6e00" stroke="#000000" stroke-width="0" stroke-linecap="round"/><g fill="#1f0043" stroke-linecap="round"><path d="M247.05209,198.56683c0,0 -7.31262,1.35392 -9.86988,0.30486c-2.41593,-0.99107 -1.97231,-6.91408 -1.97231,-6.91408c0,0 -5.35152,-1.62228 -5.61415,-4.23041c-0.04587,-1.74497 5.19122,-4.39032 5.19122,-4.39032c0,0 -0.24312,-4.76777 1.64842,-5.39388c1.76515,-0.58428 6.38735,0.12566 6.38735,0.12566c0,0 5.27294,-3.57074 8.171,-3.93786c2.61874,-0.33173 8.46445,1.83056 8.46445,1.83056c0,0 7.91892,-2.80198 11.6282,-2.72068c3.5692,0.07823 9.09562,4.25326 9.09562,4.25326c0,0 8.07588,-2.02317 10.60223,-1.15343c2.57969,0.8881 4.57827,5.47019 4.57827,5.47019c0,0 4.26955,1.34397 4.6638,3.69147c0.37131,2.10926 -3.6318,3.96501 -3.6318,3.96501c0,0 1.32997,4.72819 -0.26087,6.16935c-1.50604,1.36434 -8.47979,1.78088 -8.47979,1.78088c0,0 -4.61093,5.68276 -8.76668,6.10958c-3.91233,0.40182 -13.50791,-2.66129 -13.50791,-2.66129c0,0 -6.74335,2.20161 -9.93429,1.80136c-2.88781,-0.36223 -8.3929,-4.10023 -8.3929,-4.10023z" stroke="#1f0043" stroke-width="2"/><path d="M248.15334,197.31035c0,0 -6.89416,1.19542 -9.30508,0.26917c-2.27768,-0.87506 -1.85944,-6.1047 -1.85944,-6.1047c0,0 -5.04528,-1.43237 -5.29289,-3.73518c-0.04324,-1.5407 4.89416,-3.87638 4.89416,-3.87638c0,0 -0.22921,-4.20964 1.55409,-4.76246c1.66414,-0.51588 6.02183,0.11095 6.02183,0.11095c0,0 4.9712,-3.15274 7.70342,-3.47688c2.46888,-0.2929 7.98007,1.61628 7.98007,1.61628c0,0 7.46576,-2.47397 10.96279,-2.40219c3.36495,0.06907 8.57513,3.75536 8.57513,3.75536c0,0 7.61374,-1.78633 9.99553,-1.01841c2.43207,0.78413 4.31628,4.82984 4.31628,4.82984c0,0 4.02522,1.18665 4.39691,3.25934c0.35006,1.86235 -3.42397,3.50085 -3.42397,3.50085c0,0 1.25386,4.1747 -0.24595,5.44715c-1.41986,1.20463 -7.99454,1.57241 -7.99454,1.57241c0,0 -4.34708,5.01752 -8.26501,5.39437c-3.68845,0.35478 -12.73493,-2.34975 -12.73493,-2.34975c0,0 -6.35746,1.94389 -9.36581,1.59049c-2.72256,-0.31983 -7.91261,-3.62024 -7.91261,-3.62024z" stroke="#7700ff" stroke-width="1.5"/></g></g></g></svg>